<svg width="242" height="132" viewBox="0 0 242 132" fill="none" xmlns="http://www.w3.org/2000/svg">
<path d="M0 63.5C0 52.7304 8.73045 44 19.5 44H212C228.569 44 242 57.4315 242 74V83H19.5C8.73045 83 0 74.2696 0 63.5Z" fill="#FF7E89"/>
<path d="M32.5403 62.376C32.5403 63.176 32.3003 63.8 31.8203 64.248C31.3403 64.696 30.7243 65 29.9723 65.16V65.256C30.7723 65.368 31.4683 65.656 32.0603 66.12C32.6523 66.568 32.9483 67.272 32.9483 68.232C32.9483 68.776 32.8443 69.28 32.6363 69.744C32.4443 70.208 32.1403 70.608 31.7243 70.944C31.3083 71.28 30.7723 71.544 30.1163 71.736C29.4603 71.912 28.6683 72 27.7403 72H22.1963V59.136H27.7163C28.6283 59.136 29.4443 59.24 30.1643 59.448C30.9003 59.64 31.4763 59.976 31.8923 60.456C32.3243 60.92 32.5403 61.56 32.5403 62.376ZM30.7643 68.232C30.7643 67.496 30.4843 66.968 29.9243 66.648C29.3643 66.328 28.5403 66.168 27.4523 66.168H24.3083V70.296H27.5003C28.5563 70.296 29.3643 70.144 29.9243 69.84C30.4843 69.52 30.7643 68.984 30.7643 68.232ZM30.4043 62.64C30.4043 62.032 30.1803 61.592 29.7323 61.32C29.3003 61.032 28.5883 60.888 27.5963 60.888H24.3083V64.416H27.2122C28.2523 64.416 29.0443 64.272 29.5883 63.984C30.1323 63.696 30.4043 63.248 30.4043 62.64ZM49.3568 59.136V60.912H43.6208V72H41.5088V59.136H49.3568ZM62.8412 65.544C62.8412 66.616 62.6972 67.568 62.4092 68.4C62.1372 69.216 61.7372 69.912 61.2092 70.488C60.6972 71.064 60.0652 71.504 59.3132 71.808C58.5772 72.096 57.7532 72.24 56.8412 72.24C55.9932 72.24 55.2092 72.096 54.4892 71.808C53.7692 71.504 53.1452 71.064 52.6172 70.488C52.0892 69.912 51.6732 69.216 51.3692 68.4C51.0812 67.568 50.9372 66.616 50.9372 65.544C50.9372 64.12 51.1772 62.92 51.6572 61.944C52.1372 60.952 52.8252 60.2 53.7212 59.688C54.6172 59.16 55.6812 58.896 56.9132 58.896C58.0812 58.896 59.1052 59.16 59.9852 59.688C60.8812 60.2 61.5772 60.952 62.0732 61.944C62.5852 62.92 62.8412 64.12 62.8412 65.544ZM53.1212 65.544C53.1212 66.552 53.2492 67.432 53.5052 68.184C53.7772 68.92 54.1932 69.488 54.7532 69.888C55.3132 70.288 56.0252 70.488 56.8892 70.488C57.7532 70.488 58.4652 70.288 59.0252 69.888C59.5852 69.488 59.9932 68.92 60.2492 68.184C60.5212 67.432 60.6572 66.552 60.6572 65.544C60.6572 64.52 60.5212 63.648 60.2492 62.928C59.9772 62.208 59.5612 61.656 59.0012 61.272C58.4572 60.872 57.7452 60.672 56.8652 60.672C55.5532 60.672 54.6012 61.104 54.0092 61.968C53.4172 62.832 53.1212 64.024 53.1212 65.544ZM72.3084 58.896C73.8924 58.896 75.1644 59.448 76.1244 60.552C77.1004 61.656 77.5884 63.32 77.5884 65.544C77.5884 67 77.3644 68.232 76.9164 69.24C76.4844 70.232 75.8684 70.984 75.0684 71.496C74.2844 71.992 73.3564 72.24 72.2844 72.24C71.6284 72.24 71.0444 72.152 70.5324 71.976C70.0204 71.8 69.5804 71.576 69.2124 71.304C68.8604 71.016 68.5564 70.704 68.3004 70.368H68.1564C68.1884 70.64 68.2204 70.984 68.2524 71.4C68.2844 71.816 68.3004 72.176 68.3004 72.48V77.76H66.1884V59.136H67.9164L68.2044 60.888H68.3004C68.5564 60.52 68.8604 60.184 69.2124 59.88C69.5804 59.576 70.0124 59.336 70.5084 59.16C71.0204 58.984 71.6204 58.896 72.3084 58.896ZM71.9244 60.672C71.0604 60.672 70.3644 60.84 69.8364 61.176C69.3084 61.496 68.9244 61.984 68.6844 62.64C68.4444 63.296 68.3164 64.128 68.3004 65.136V65.544C68.3004 66.6 68.4124 67.496 68.6364 68.232C68.8604 68.968 69.2364 69.528 69.7644 69.912C70.3084 70.296 71.0444 70.488 71.9724 70.488C72.7564 70.488 73.3964 70.272 73.8924 69.84C74.4044 69.408 74.7804 68.824 75.0204 68.088C75.2764 67.336 75.4044 66.48 75.4044 65.52C75.4044 64.048 75.1164 62.872 74.5404 61.992C73.9804 61.112 73.1084 60.672 71.9244 60.672ZM92.1381 65.544C92.1381 66.616 91.9941 67.568 91.7061 68.4C91.4341 69.216 91.0341 69.912 90.5061 70.488C89.9941 71.064 89.3621 71.504 88.6101 71.808C87.8741 72.096 87.0501 72.24 86.1381 72.24C85.2901 72.24 84.5061 72.096 83.7861 71.808C83.0661 71.504 82.4421 71.064 81.9141 70.488C81.3861 69.912 80.9701 69.216 80.6661 68.4C80.3781 67.568 80.2341 66.616 80.2341 65.544C80.2341 64.12 80.4741 62.92 80.9541 61.944C81.4341 60.952 82.1221 60.2 83.0181 59.688C83.9141 59.16 84.9781 58.896 86.2101 58.896C87.3781 58.896 88.4021 59.16 89.2821 59.688C90.1781 60.2 90.8741 60.952 91.3701 61.944C91.8821 62.92 92.1381 64.12 92.1381 65.544ZM82.4181 65.544C82.4181 66.552 82.5461 67.432 82.8021 68.184C83.0741 68.92 83.4901 69.488 84.0501 69.888C84.6101 70.288 85.3221 70.488 86.1861 70.488C87.0501 70.488 87.7621 70.288 88.3221 69.888C88.8821 69.488 89.2901 68.92 89.5461 68.184C89.8181 67.432 89.9541 66.552 89.9541 65.544C89.9541 64.52 89.8181 63.648 89.5461 62.928C89.2741 62.208 88.8581 61.656 88.2981 61.272C87.7541 60.872 87.0421 60.672 86.1621 60.672C84.8501 60.672 83.8981 61.104 83.3061 61.968C82.7141 62.832 82.4181 64.024 82.4181 65.544ZM105.037 59.136V70.224H106.909V76.464H104.869V72H95.9173V76.464H93.9013V70.224H94.9333C95.6693 69.2 96.2773 68.088 96.7573 66.888C97.2533 65.672 97.6213 64.408 97.8613 63.096C98.1173 61.768 98.2533 60.448 98.2693 59.136H105.037ZM100.141 60.792C100.077 61.88 99.9093 63.008 99.6373 64.176C99.3653 65.328 99.0133 66.432 98.5813 67.488C98.1653 68.544 97.6773 69.456 97.1173 70.224H102.997V60.792H100.141ZM114.303 58.92C115.871 58.92 117.031 59.264 117.783 59.952C118.535 60.64 118.911 61.736 118.911 63.24V72H117.375L116.967 70.176H116.871C116.503 70.64 116.119 71.032 115.719 71.352C115.335 71.656 114.887 71.88 114.375 72.024C113.879 72.168 113.271 72.24 112.551 72.24C111.783 72.24 111.087 72.104 110.463 71.832C109.855 71.56 109.375 71.144 109.023 70.584C108.671 70.008 108.495 69.288 108.495 68.424C108.495 67.144 108.999 66.16 110.007 65.472C111.015 64.768 112.567 64.384 114.663 64.32L116.847 64.248V63.48C116.847 62.408 116.615 61.664 116.151 61.248C115.687 60.832 115.031 60.624 114.183 60.624C113.511 60.624 112.871 60.728 112.263 60.936C111.655 61.128 111.087 61.352 110.559 61.608L109.911 60.024C110.471 59.72 111.135 59.464 111.903 59.256C112.671 59.032 113.471 58.92 114.303 58.92ZM114.927 65.784C113.327 65.848 112.215 66.104 111.591 66.552C110.983 67 110.679 67.632 110.679 68.448C110.679 69.168 110.895 69.696 111.327 70.032C111.775 70.368 112.343 70.536 113.031 70.536C114.119 70.536 115.023 70.24 115.743 69.648C116.463 69.04 116.823 68.112 116.823 66.864V65.712L114.927 65.784ZM125.932 65.424L121.492 59.136H123.892L127.204 63.984L130.492 59.136H132.868L128.428 65.424L133.108 72H130.708L127.204 66.864L123.652 72H121.276L125.932 65.424ZM145.895 54.864C148.135 54.864 149.767 55.304 150.791 56.184C151.815 57.064 152.327 58.304 152.327 59.904C152.327 60.608 152.207 61.288 151.967 61.944C151.743 62.584 151.367 63.16 150.839 63.672C150.311 64.184 149.607 64.592 148.727 64.896C147.847 65.184 146.767 65.328 145.487 65.328H143.519V72H141.359V54.864H145.895ZM145.703 56.712H143.519V63.48H145.247C146.335 63.48 147.239 63.368 147.959 63.144C148.679 62.904 149.215 62.528 149.567 62.016C149.919 61.504 150.095 60.832 150.095 60C150.095 58.896 149.743 58.072 149.039 57.528C148.335 56.984 147.223 56.712 145.703 56.712ZM166.786 65.544C166.786 66.616 166.643 67.568 166.355 68.4C166.083 69.216 165.683 69.912 165.155 70.488C164.643 71.064 164.011 71.504 163.259 71.808C162.523 72.096 161.699 72.24 160.787 72.24C159.939 72.24 159.155 72.096 158.435 71.808C157.715 71.504 157.091 71.064 156.562 70.488C156.035 69.912 155.619 69.216 155.315 68.4C155.027 67.568 154.883 66.616 154.883 65.544C154.883 64.12 155.123 62.92 155.603 61.944C156.083 60.952 156.771 60.2 157.667 59.688C158.563 59.16 159.627 58.896 160.859 58.896C162.027 58.896 163.051 59.16 163.931 59.688C164.827 60.2 165.523 60.952 166.019 61.944C166.531 62.92 166.786 64.12 166.786 65.544ZM157.067 65.544C157.067 66.552 157.195 67.432 157.451 68.184C157.723 68.92 158.139 69.488 158.699 69.888C159.259 70.288 159.971 70.488 160.835 70.488C161.699 70.488 162.411 70.288 162.971 69.888C163.531 69.488 163.939 68.92 164.195 68.184C164.467 67.432 164.603 66.552 164.603 65.544C164.603 64.52 164.467 63.648 164.195 62.928C163.923 62.208 163.507 61.656 162.947 61.272C162.403 60.872 161.691 60.672 160.811 60.672C159.499 60.672 158.547 61.104 157.955 61.968C157.363 62.832 157.067 64.024 157.067 65.544ZM175.294 72.24C174.158 72.24 173.142 72.008 172.246 71.544C171.366 71.08 170.67 70.36 170.158 69.384C169.662 68.408 169.414 67.16 169.414 65.64C169.414 64.056 169.678 62.768 170.206 61.776C170.734 60.784 171.446 60.056 172.342 59.592C173.254 59.128 174.286 58.896 175.438 58.896C176.094 58.896 176.726 58.968 177.334 59.112C177.942 59.24 178.438 59.4 178.822 59.592L178.174 61.344C177.79 61.2 177.342 61.064 176.83 60.936C176.318 60.808 175.838 60.744 175.39 60.744C174.526 60.744 173.814 60.928 173.254 61.296C172.694 61.664 172.278 62.208 172.006 62.928C171.734 63.648 171.598 64.544 171.598 65.616C171.598 66.64 171.734 67.512 172.006 68.232C172.278 68.952 172.686 69.496 173.23 69.864C173.774 70.232 174.454 70.416 175.27 70.416C175.974 70.416 176.59 70.344 177.118 70.2C177.662 70.056 178.158 69.88 178.606 69.672V71.544C178.174 71.768 177.694 71.936 177.166 72.048C176.654 72.176 176.03 72.24 175.294 72.24ZM186.825 72.24C185.689 72.24 184.673 72.008 183.777 71.544C182.897 71.08 182.201 70.36 181.689 69.384C181.193 68.408 180.945 67.16 180.945 65.64C180.945 64.056 181.209 62.768 181.737 61.776C182.265 60.784 182.977 60.056 183.873 59.592C184.785 59.128 185.817 58.896 186.969 58.896C187.625 58.896 188.257 58.968 188.865 59.112C189.473 59.24 189.969 59.4 190.353 59.592L189.705 61.344C189.321 61.2 188.873 61.064 188.361 60.936C187.849 60.808 187.369 60.744 186.921 60.744C186.057 60.744 185.345 60.928 184.785 61.296C184.225 61.664 183.809 62.208 183.537 62.928C183.265 63.648 183.129 64.544 183.129 65.616C183.129 66.64 183.265 67.512 183.537 68.232C183.809 68.952 184.217 69.496 184.761 69.864C185.305 70.232 185.985 70.416 186.801 70.416C187.505 70.416 188.121 70.344 188.649 70.2C189.193 70.056 189.689 69.88 190.137 69.672V71.544C189.705 71.768 189.225 71.936 188.697 72.048C188.185 72.176 187.561 72.24 186.825 72.24ZM195.188 66.984C195.188 67.128 195.18 67.336 195.164 67.608C195.164 67.864 195.156 68.144 195.14 68.448C195.124 68.736 195.108 69.016 195.092 69.288C195.076 69.544 195.06 69.752 195.044 69.912L201.932 59.136H204.524V72H202.556V64.416C202.556 64.16 202.556 63.824 202.556 63.408C202.572 62.992 202.588 62.584 202.604 62.184C202.62 61.768 202.636 61.456 202.652 61.248L195.812 72H193.196V59.136H195.188V66.984ZM210.61 66.984C210.61 67.128 210.602 67.336 210.586 67.608C210.586 67.864 210.578 68.144 210.562 68.448C210.546 68.736 210.53 69.016 210.514 69.288C210.498 69.544 210.482 69.752 210.466 69.912L217.354 59.136H219.946V72H217.978V64.416C217.978 64.16 217.978 63.824 217.978 63.408C217.994 62.992 218.01 62.584 218.026 62.184C218.042 61.768 218.058 61.456 218.074 61.248L211.234 72H208.618V59.136H210.61V66.984Z" fill="white"/>
<path d="M0 19.5C0 8.73045 8.73045 0 19.5 0H189.5C200.27 0 209 8.73045 209 19.5C209 30.2696 200.27 39 189.5 39H19.5C8.73044 39 0 30.2696 0 19.5Z" fill="#FF7E89"/>
<path d="M37.28 19.408C37.28 20.736 37.112 21.944 36.776 23.032C36.44 24.104 35.936 25.032 35.264 25.816C34.608 26.6 33.784 27.2 32.792 27.616C31.816 28.032 30.68 28.24 29.384 28.24C28.04 28.24 26.872 28.032 25.88 27.616C24.888 27.184 24.064 26.584 23.408 25.816C22.752 25.032 22.264 24.096 21.944 23.008C21.624 21.92 21.464 20.712 21.464 19.384C21.464 17.624 21.752 16.088 22.328 14.776C22.904 13.464 23.776 12.44 24.944 11.704C26.128 10.968 27.616 10.6 29.408 10.6C31.12 10.6 32.56 10.968 33.728 11.704C34.896 12.424 35.776 13.448 36.368 14.776C36.976 16.088 37.28 17.632 37.28 19.408ZM23.744 19.408C23.744 20.848 23.944 22.088 24.344 23.128C24.744 24.168 25.36 24.968 26.192 25.528C27.04 26.088 28.104 26.368 29.384 26.368C30.68 26.368 31.736 26.088 32.552 25.528C33.384 24.968 34 24.168 34.4 23.128C34.8 22.088 35 20.848 35 19.408C35 17.248 34.552 15.56 33.656 14.344C32.76 13.112 31.344 12.496 29.408 12.496C28.112 12.496 27.04 12.776 26.192 13.336C25.36 13.88 24.744 14.672 24.344 15.712C23.944 16.736 23.744 17.968 23.744 19.408ZM48.1224 19.816C48.1224 20.568 48.3304 21.128 48.7464 21.496C49.1784 21.848 49.7944 22.024 50.5944 22.024C51.3944 22.024 52.1224 21.904 52.7784 21.664C53.4344 21.408 54.1064 21.072 54.7944 20.656V15.136H56.9064V28H54.7944V22.264C54.0744 22.728 53.3624 23.096 52.6584 23.368C51.9704 23.624 51.1384 23.752 50.1624 23.752C48.8504 23.752 47.8264 23.408 47.0904 22.72C46.3704 22.032 46.0104 21.112 46.0104 19.96V15.136H48.1224V19.816ZM65.9611 14.896C67.0651 14.896 68.0091 15.136 68.7931 15.616C69.5931 16.096 70.2011 16.776 70.6171 17.656C71.0491 18.52 71.2651 19.536 71.2651 20.704V21.976H62.4571C62.4891 23.432 62.8571 24.544 63.5611 25.312C64.2811 26.064 65.2811 26.44 66.5611 26.44C67.3771 26.44 68.0971 26.368 68.7211 26.224C69.3611 26.064 70.0171 25.84 70.6891 25.552V27.4C70.0331 27.688 69.3851 27.896 68.7451 28.024C68.1051 28.168 67.3451 28.24 66.4651 28.24C65.2491 28.24 64.1691 27.992 63.2251 27.496C62.2971 27 61.5691 26.264 61.0411 25.288C60.5291 24.296 60.2731 23.088 60.2731 21.664C60.2731 20.256 60.5051 19.048 60.9691 18.04C61.4491 17.032 62.1131 16.256 62.9611 15.712C63.8251 15.168 64.8251 14.896 65.9611 14.896ZM65.9371 16.624C64.9291 16.624 64.1291 16.952 63.5371 17.608C62.9611 18.248 62.6171 19.144 62.5051 20.296H69.0571C69.0571 19.56 68.9451 18.92 68.7211 18.376C68.4971 17.832 68.1531 17.408 67.6891 17.104C67.2411 16.784 66.6571 16.624 65.9371 16.624ZM88.34 15.136V28H86.444V19.792C86.444 19.456 86.452 19.104 86.468 18.736C86.5 18.368 86.532 18.008 86.564 17.656H86.492L82.292 28H80.516L76.436 17.656H76.364C76.396 18.008 76.412 18.368 76.412 18.736C76.428 19.104 76.436 19.48 76.436 19.864V28H74.54V15.136H77.348L81.404 25.48L85.532 15.136H88.34ZM105.779 15.136V16.912H100.043V28H97.9306V15.136H105.779ZM119.263 21.544C119.263 22.616 119.119 23.568 118.831 24.4C118.559 25.216 118.159 25.912 117.631 26.488C117.119 27.064 116.487 27.504 115.735 27.808C114.999 28.096 114.175 28.24 113.263 28.24C112.415 28.24 111.631 28.096 110.911 27.808C110.191 27.504 109.567 27.064 109.039 26.488C108.511 25.912 108.095 25.216 107.791 24.4C107.503 23.568 107.359 22.616 107.359 21.544C107.359 20.12 107.599 18.92 108.079 17.944C108.559 16.952 109.247 16.2 110.143 15.688C111.039 15.16 112.103 14.896 113.335 14.896C114.503 14.896 115.527 15.16 116.407 15.688C117.303 16.2 117.999 16.952 118.495 17.944C119.007 18.92 119.263 20.12 119.263 21.544ZM109.543 21.544C109.543 22.552 109.671 23.432 109.927 24.184C110.199 24.92 110.615 25.488 111.175 25.888C111.735 26.288 112.447 26.488 113.311 26.488C114.175 26.488 114.887 26.288 115.447 25.888C116.007 25.488 116.415 24.92 116.671 24.184C116.943 23.432 117.079 22.552 117.079 21.544C117.079 20.52 116.943 19.648 116.671 18.928C116.399 18.208 115.983 17.656 115.423 17.272C114.879 16.872 114.167 16.672 113.287 16.672C111.975 16.672 111.023 17.104 110.431 17.968C109.839 18.832 109.543 20.024 109.543 21.544ZM132.954 18.376C132.954 19.176 132.714 19.8 132.234 20.248C131.754 20.696 131.138 21 130.386 21.16V21.256C131.186 21.368 131.882 21.656 132.474 22.12C133.066 22.568 133.362 23.272 133.362 24.232C133.362 24.776 133.258 25.28 133.05 25.744C132.858 26.208 132.554 26.608 132.138 26.944C131.722 27.28 131.186 27.544 130.53 27.736C129.874 27.912 129.082 28 128.154 28H122.61V15.136H128.13C129.042 15.136 129.858 15.24 130.578 15.448C131.314 15.64 131.89 15.976 132.306 16.456C132.738 16.92 132.954 17.56 132.954 18.376ZM131.178 24.232C131.178 23.496 130.898 22.968 130.338 22.648C129.778 22.328 128.954 22.168 127.866 22.168H124.722V26.296H127.914C128.97 26.296 129.778 26.144 130.338 25.84C130.898 25.52 131.178 24.984 131.178 24.232ZM130.818 18.64C130.818 18.032 130.594 17.592 130.146 17.32C129.714 17.032 129.002 16.888 128.01 16.888H124.722V20.416H127.626C128.666 20.416 129.458 20.272 130.002 19.984C130.546 19.696 130.818 19.248 130.818 18.64ZM147.622 21.544C147.622 22.616 147.478 23.568 147.19 24.4C146.918 25.216 146.518 25.912 145.99 26.488C145.478 27.064 144.846 27.504 144.094 27.808C143.358 28.096 142.534 28.24 141.622 28.24C140.774 28.24 139.99 28.096 139.27 27.808C138.55 27.504 137.926 27.064 137.398 26.488C136.87 25.912 136.454 25.216 136.15 24.4C135.862 23.568 135.718 22.616 135.718 21.544C135.718 20.12 135.958 18.92 136.438 17.944C136.918 16.952 137.606 16.2 138.502 15.688C139.398 15.16 140.462 14.896 141.694 14.896C142.862 14.896 143.886 15.16 144.766 15.688C145.662 16.2 146.358 16.952 146.854 17.944C147.366 18.92 147.622 20.12 147.622 21.544ZM137.902 21.544C137.902 22.552 138.03 23.432 138.286 24.184C138.558 24.92 138.974 25.488 139.534 25.888C140.094 26.288 140.806 26.488 141.67 26.488C142.534 26.488 143.246 26.288 143.806 25.888C144.366 25.488 144.774 24.92 145.03 24.184C145.302 23.432 145.438 22.552 145.438 21.544C145.438 20.52 145.302 19.648 145.03 18.928C144.758 18.208 144.342 17.656 143.782 17.272C143.238 16.872 142.526 16.672 141.646 16.672C140.334 16.672 139.382 17.104 138.79 17.968C138.198 18.832 137.902 20.024 137.902 21.544ZM157.09 14.896C158.674 14.896 159.946 15.448 160.906 16.552C161.882 17.656 162.37 19.32 162.37 21.544C162.37 23 162.146 24.232 161.698 25.24C161.266 26.232 160.65 26.984 159.85 27.496C159.066 27.992 158.138 28.24 157.066 28.24C156.41 28.24 155.826 28.152 155.314 27.976C154.802 27.8 154.362 27.576 153.994 27.304C153.642 27.016 153.338 26.704 153.082 26.368H152.938C152.97 26.64 153.002 26.984 153.034 27.4C153.066 27.816 153.082 28.176 153.082 28.48V33.76H150.97V15.136H152.698L152.986 16.888H153.082C153.338 16.52 153.642 16.184 153.994 15.88C154.362 15.576 154.794 15.336 155.29 15.16C155.802 14.984 156.402 14.896 157.09 14.896ZM156.706 16.672C155.842 16.672 155.146 16.84 154.618 17.176C154.09 17.496 153.706 17.984 153.466 18.64C153.226 19.296 153.098 20.128 153.082 21.136V21.544C153.082 22.6 153.194 23.496 153.418 24.232C153.642 24.968 154.018 25.528 154.546 25.912C155.09 26.296 155.826 26.488 156.754 26.488C157.538 26.488 158.178 26.272 158.674 25.84C159.186 25.408 159.562 24.824 159.802 24.088C160.058 23.336 160.186 22.48 160.186 21.52C160.186 20.048 159.898 18.872 159.322 17.992C158.762 17.112 157.89 16.672 156.706 16.672ZM166.527 28H164.079L167.751 22.6C167.255 22.472 166.775 22.272 166.311 22C165.847 21.712 165.471 21.32 165.183 20.824C164.895 20.312 164.751 19.68 164.751 18.928C164.751 17.696 165.167 16.76 165.999 16.12C166.831 15.464 167.935 15.136 169.311 15.136H175.071V28H172.959V22.888H169.839L166.527 28ZM166.791 18.952C166.791 19.688 167.063 20.24 167.607 20.608C168.167 20.96 168.943 21.136 169.935 21.136H172.959V16.888H169.527C168.551 16.888 167.847 17.08 167.415 17.464C166.999 17.848 166.791 18.344 166.791 18.952ZM188.022 16.912H183.822V28H181.734V16.912H177.582V15.136H188.022V16.912Z" fill="white"/>
<path d="M10.592 112H8.64V107.216H3.52V112H1.552V100.8H3.52V105.376H8.64V100.8H10.592V112ZM13.7246 106.656L13.2606 105.312C14.0393 104.853 14.8873 104.624 15.8046 104.624C16.8073 104.624 17.538 104.869 17.9966 105.36C18.4553 105.851 18.6846 106.603 18.6846 107.616V112H17.0846V111.168C16.658 111.787 15.9486 112.096 14.9566 112.096C14.274 112.096 13.7246 111.899 13.3086 111.504C12.9033 111.099 12.7006 110.56 12.7006 109.888C12.7006 109.141 12.9406 108.565 13.4206 108.16C13.9006 107.755 14.5353 107.552 15.3246 107.552C15.9753 107.552 16.5193 107.707 16.9566 108.016C16.978 107.376 16.882 106.907 16.6686 106.608C16.466 106.309 16.114 106.16 15.6126 106.16C15.058 106.16 14.4286 106.325 13.7246 106.656ZM15.5646 110.544C16.1833 110.544 16.6473 110.325 16.9566 109.888V109.152C16.658 108.917 16.2366 108.8 15.6926 108.8C15.3513 108.8 15.074 108.88 14.8606 109.04C14.6473 109.2 14.5406 109.419 14.5406 109.696C14.5406 109.952 14.6366 110.16 14.8286 110.32C15.0206 110.469 15.266 110.544 15.5646 110.544ZM28.3949 104.8H30.5709L28.1869 108.288L30.7629 112H28.5869L26.1869 108.288L28.3949 104.8ZM26.1069 112H24.2669V104.8H26.1069V112ZM19.6589 112L22.2029 108.288L19.8029 104.8H22.0429L24.1869 108.288L21.8509 112H19.6589ZM33.7546 112H31.9146V104.8H33.5786L36.0266 107.808L38.3466 104.8H39.9626V112H38.1226V107.6L35.9946 110.288H35.9466L33.7546 107.6V112ZM47.2084 107.44L43.8484 112H42.0084V104.8H43.8484V109.36L47.2084 104.8H49.0484V112H47.2084V107.44ZM61.3248 112H59.4848V109.248H56.3328V112H54.4928V104.8H56.3328V107.52H59.4848V104.8H61.3248V112ZM63.9278 106.656L63.4638 105.312C64.2424 104.853 65.0904 104.624 66.0078 104.624C67.0104 104.624 67.7411 104.869 68.1998 105.36C68.6584 105.851 68.8878 106.603 68.8878 107.616V112H67.2878V111.168C66.8611 111.787 66.1518 112.096 65.1598 112.096C64.4771 112.096 63.9278 111.899 63.5118 111.504C63.1064 111.099 62.9038 110.56 62.9038 109.888C62.9038 109.141 63.1438 108.565 63.6238 108.16C64.1038 107.755 64.7384 107.552 65.5278 107.552C66.1784 107.552 66.7224 107.707 67.1598 108.016C67.1811 107.376 67.0851 106.907 66.8718 106.608C66.6691 106.309 66.3171 106.16 65.8158 106.16C65.2611 106.16 64.6318 106.325 63.9278 106.656ZM65.7678 110.544C66.3864 110.544 66.8504 110.325 67.1598 109.888V109.152C66.8611 108.917 66.4398 108.8 65.8958 108.8C65.5544 108.8 65.2771 108.88 65.0638 109.04C64.8504 109.2 64.7438 109.419 64.7438 109.696C64.7438 109.952 64.8398 110.16 65.0318 110.32C65.2238 110.469 65.4691 110.544 65.7678 110.544ZM76.0046 112H74.1646V104.8H78.9966V106.528H76.0046V112ZM80.5543 111.12C79.8396 110.405 79.4823 109.499 79.4823 108.4C79.4823 107.301 79.8396 106.4 80.5543 105.696C81.2689 104.981 82.2183 104.624 83.4023 104.624C84.5756 104.624 85.5196 104.981 86.2343 105.696C86.9596 106.4 87.3223 107.301 87.3223 108.4C87.3223 109.488 86.9596 110.395 86.2343 111.12C85.5089 111.824 84.5649 112.176 83.4023 112.176C82.2183 112.176 81.2689 111.824 80.5543 111.12ZM82.0103 106.928C81.6369 107.312 81.4503 107.803 81.4503 108.4C81.4503 108.997 81.6316 109.493 81.9943 109.888C82.3676 110.272 82.8369 110.464 83.4023 110.464C83.9783 110.464 84.4476 110.272 84.8103 109.888C85.1836 109.504 85.3703 109.008 85.3703 108.4C85.3703 107.803 85.1836 107.312 84.8103 106.928C84.4369 106.544 83.9676 106.352 83.4023 106.352C82.8476 106.352 82.3836 106.544 82.0103 106.928ZM90.7546 115.2H88.9146V104.8H90.7546V105.488C90.9893 105.232 91.3093 105.024 91.7146 104.864C92.12 104.704 92.5413 104.624 92.9786 104.624C93.9706 104.624 94.76 104.965 95.3466 105.648C95.944 106.341 96.2426 107.221 96.2426 108.288C96.2426 109.408 95.8906 110.336 95.1866 111.072C94.4826 111.808 93.5653 112.176 92.4346 112.176C91.7093 112.176 91.1493 112.059 90.7546 111.824V115.2ZM92.4026 106.352C91.7626 106.352 91.2133 106.613 90.7546 107.136V110.048C91.192 110.325 91.6986 110.464 92.2746 110.464C92.8826 110.464 93.368 110.267 93.7306 109.872C94.104 109.477 94.2906 108.965 94.2906 108.336C94.2906 107.739 94.12 107.259 93.7786 106.896C93.448 106.533 92.9893 106.352 92.4026 106.352ZM98.4605 111.12C97.7458 110.405 97.3885 109.499 97.3885 108.4C97.3885 107.301 97.7458 106.4 98.4605 105.696C99.1752 104.981 100.125 104.624 101.309 104.624C102.482 104.624 103.426 104.981 104.141 105.696C104.866 106.4 105.229 107.301 105.229 108.4C105.229 109.488 104.866 110.395 104.141 111.12C103.415 111.824 102.471 112.176 101.309 112.176C100.125 112.176 99.1752 111.824 98.4605 111.12ZM99.9165 106.928C99.5432 107.312 99.3565 107.803 99.3565 108.4C99.3565 108.997 99.5378 109.493 99.9005 109.888C100.274 110.272 100.743 110.464 101.309 110.464C101.885 110.464 102.354 110.272 102.717 109.888C103.09 109.504 103.277 109.008 103.277 108.4C103.277 107.803 103.09 107.312 102.717 106.928C102.343 106.544 101.874 106.352 101.309 106.352C100.754 106.352 100.29 106.544 99.9165 106.928ZM107.435 113.68H105.723V110.288H106.635C107.2 109.531 107.536 108.277 107.643 106.528L107.755 104.8H113.067V110.288H114.267V113.68H112.539V112H107.435V113.68ZM109.467 106.528L109.419 107.264C109.291 108.651 109.003 109.659 108.555 110.288H111.227V106.528H109.467ZM124.068 107.44L120.708 112H118.868V104.8H120.708V109.36L124.068 104.8H125.908V112H124.068V107.44ZM136.2 104.8H138.296L135.464 112C134.952 113.248 134.493 114.091 134.088 114.528C133.693 114.976 133.224 115.2 132.68 115.2C132.168 115.2 131.651 115.013 131.128 114.64L131.72 113.248C131.997 113.419 132.248 113.504 132.472 113.504C132.909 113.504 133.277 113.131 133.576 112.384L133.736 112L130.408 104.8H132.616L134.296 108.736C134.317 108.789 134.435 109.136 134.648 109.776C134.712 109.381 134.797 109.029 134.904 108.72L136.2 104.8ZM141.943 112.176C141.314 112.176 140.7 112.064 140.103 111.84C139.506 111.605 139.074 111.317 138.807 110.976L139.751 109.824C139.964 110.069 140.268 110.277 140.663 110.448C141.058 110.619 141.431 110.704 141.783 110.704C142.252 110.704 142.615 110.624 142.871 110.464C143.127 110.304 143.255 110.091 143.255 109.824C143.255 109.579 143.159 109.381 142.967 109.232C142.775 109.083 142.508 109.008 142.167 109.008H140.823V107.776H142.087C142.375 107.776 142.604 107.696 142.775 107.536C142.956 107.365 143.047 107.152 143.047 106.896C143.047 106.373 142.626 106.112 141.783 106.112C141.122 106.112 140.466 106.389 139.815 106.944L139.047 105.84C139.73 105.029 140.759 104.624 142.135 104.624C143.063 104.624 143.772 104.805 144.263 105.168C144.764 105.52 145.015 106.021 145.015 106.672C145.015 107.024 144.898 107.344 144.663 107.632C144.428 107.92 144.103 108.133 143.687 108.272V108.304C144.167 108.4 144.54 108.603 144.807 108.912C145.074 109.211 145.207 109.573 145.207 110C145.207 110.672 144.908 111.205 144.311 111.6C143.724 111.984 142.935 112.176 141.943 112.176ZM153.778 112H151.938V109.248H148.786V112H146.946V104.8H148.786V107.52H151.938V104.8H153.778V112ZM156.381 106.656L155.917 105.312C156.696 104.853 157.544 104.624 158.461 104.624C159.464 104.624 160.194 104.869 160.653 105.36C161.112 105.851 161.341 106.603 161.341 107.616V112H159.741V111.168C159.314 111.787 158.605 112.096 157.613 112.096C156.93 112.096 156.381 111.899 155.965 111.504C155.56 111.099 155.357 110.56 155.357 109.888C155.357 109.141 155.597 108.565 156.077 108.16C156.557 107.755 157.192 107.552 157.981 107.552C158.632 107.552 159.176 107.707 159.613 108.016C159.634 107.376 159.538 106.907 159.325 106.608C159.122 106.309 158.77 106.16 158.269 106.16C157.714 106.16 157.085 106.325 156.381 106.656ZM158.221 110.544C158.84 110.544 159.304 110.325 159.613 109.888V109.152C159.314 108.917 158.893 108.8 158.349 108.8C158.008 108.8 157.73 108.88 157.517 109.04C157.304 109.2 157.197 109.419 157.197 109.696C157.197 109.952 157.293 110.16 157.485 110.32C157.677 110.469 157.922 110.544 158.221 110.544ZM168.427 107.44L165.067 112H163.227V104.8H165.067V109.36L168.427 104.8H170.267V112H168.427V107.44ZM164.299 101.2H165.979C165.979 101.552 166.048 101.835 166.187 102.048C166.326 102.261 166.534 102.368 166.811 102.368C167.056 102.368 167.243 102.261 167.371 102.048C167.51 101.824 167.579 101.541 167.579 101.2H169.259C169.259 101.947 169.04 102.549 168.603 103.008C168.166 103.456 167.568 103.68 166.811 103.68C165.979 103.68 165.35 103.461 164.923 103.024C164.507 102.576 164.299 101.968 164.299 101.2ZM172.049 110.976C172.049 110.624 172.156 110.341 172.369 110.128C172.593 109.915 172.897 109.808 173.281 109.808C173.697 109.808 174.033 109.979 174.289 110.32C174.556 110.651 174.689 111.077 174.689 111.6C174.689 112.272 174.508 112.848 174.145 113.328C173.793 113.808 173.297 114.139 172.657 114.32L172.161 113.456C172.641 113.275 172.966 112.992 173.137 112.608C173.297 112.277 173.345 112.032 173.281 111.872C173.217 111.957 173.078 112 172.865 112C172.641 112 172.449 111.904 172.289 111.712C172.129 111.509 172.049 111.264 172.049 110.976ZM4.992 120.8H6.832V128H4.992V125.52C4.45867 125.797 3.86133 125.936 3.2 125.936C2.304 125.936 1.64267 125.701 1.216 125.232C0.8 124.763 0.592 124.053 0.592 123.104V120.8H2.56V122.88C2.56 123.765 2.94933 124.208 3.728 124.208C4.22933 124.208 4.65067 124.112 4.992 123.92V120.8ZM10.4994 122.64H8.13138V120.8H14.6914V122.64H12.3394V128H10.4994V122.64ZM16.4136 127.12C15.699 126.405 15.3416 125.499 15.3416 124.4C15.3416 123.301 15.699 122.4 16.4136 121.696C17.1283 120.981 18.0776 120.624 19.2616 120.624C20.435 120.624 21.379 120.981 22.0936 121.696C22.819 122.4 23.1816 123.301 23.1816 124.4C23.1816 125.488 22.819 126.395 22.0936 127.12C21.3683 127.824 20.4243 128.176 19.2616 128.176C18.0776 128.176 17.1283 127.824 16.4136 127.12ZM17.8696 122.928C17.4963 123.312 17.3096 123.803 17.3096 124.4C17.3096 124.997 17.491 125.493 17.8536 125.888C18.227 126.272 18.6963 126.464 19.2616 126.464C19.8376 126.464 20.307 126.272 20.6696 125.888C21.043 125.504 21.2296 125.008 21.2296 124.4C21.2296 123.803 21.043 123.312 20.6696 122.928C20.2963 122.544 19.827 122.352 19.2616 122.352C18.707 122.352 18.243 122.544 17.8696 122.928ZM28.1646 128V120.8C28.2606 120.8 28.666 120.789 29.3806 120.768C30.106 120.736 30.6446 120.72 30.9966 120.72C33.1726 120.72 34.2606 121.349 34.2606 122.608C34.2606 123.013 34.1326 123.371 33.8766 123.68C33.6206 123.979 33.3006 124.155 32.9166 124.208V124.24C33.9406 124.485 34.4526 125.04 34.4526 125.904C34.4526 127.355 33.3113 128.08 31.0286 128.08C30.698 128.08 30.1913 128.064 29.5086 128.032C29.338 128.032 29.1406 128.027 28.9166 128.016C28.7033 128.016 28.538 128.011 28.4206 128C28.314 128 28.2286 128 28.1646 128ZM31.1566 124.944H30.0046V126.544C30.6446 126.587 31.05 126.608 31.2206 126.608C31.626 126.608 31.9406 126.533 32.1646 126.384C32.3993 126.235 32.5166 126.032 32.5166 125.776C32.5166 125.221 32.0633 124.944 31.1566 124.944ZM31.1566 122.208C30.73 122.208 30.346 122.219 30.0046 122.24V123.824H31.2046C31.5353 123.824 31.802 123.749 32.0046 123.6C32.2073 123.451 32.3086 123.248 32.3086 122.992C32.3086 122.469 31.9246 122.208 31.1566 122.208ZM46.4185 128H44.5785V125.248H41.4265V128H39.5865V120.8H41.4265V123.52H44.5785V120.8H46.4185V128ZM54.1095 125.984L54.6375 127.28C53.9228 127.877 53.0055 128.176 51.8855 128.176C50.7335 128.176 49.7948 127.829 49.0695 127.136C48.3655 126.453 48.0135 125.541 48.0135 124.4C48.0135 123.333 48.3602 122.437 49.0535 121.712C49.7468 120.987 50.6695 120.624 51.8215 120.624C52.7708 120.624 53.5762 120.939 54.2375 121.568C54.8988 122.197 55.2295 122.997 55.2295 123.968C55.2295 124.395 55.1922 124.725 55.1175 124.96H49.9175C49.9922 125.483 50.2215 125.893 50.6055 126.192C51.0002 126.491 51.4908 126.64 52.0775 126.64C52.8775 126.64 53.5548 126.421 54.1095 125.984ZM51.7415 122.16C50.6962 122.16 50.0668 122.683 49.8535 123.728H53.3895C53.4002 123.269 53.2508 122.896 52.9415 122.608C52.6428 122.309 52.2428 122.16 51.7415 122.16ZM49.1815 118.416C49.1815 118.107 49.2775 117.861 49.4695 117.68C49.6722 117.488 49.9228 117.392 50.2215 117.392C50.4882 117.392 50.7122 117.488 50.8935 117.68C51.0855 117.872 51.1815 118.117 51.1815 118.416C51.1815 118.736 51.0855 118.997 50.8935 119.2C50.7122 119.392 50.4882 119.488 50.2215 119.488C49.9228 119.488 49.6722 119.392 49.4695 119.2C49.2775 118.997 49.1815 118.736 49.1815 118.416ZM52.3655 118.416C52.3655 118.107 52.4615 117.861 52.6535 117.68C52.8455 117.488 53.0908 117.392 53.3895 117.392C53.6562 117.392 53.8802 117.488 54.0615 117.68C54.2535 117.872 54.3495 118.117 54.3495 118.416C54.3495 118.736 54.2535 118.997 54.0615 119.2C53.8802 119.392 53.6562 119.488 53.3895 119.488C53.0908 119.488 52.8455 119.392 52.6535 119.2C52.4615 118.997 52.3655 118.736 52.3655 118.416ZM58.5515 128H56.7115V120.8H58.3755L60.8235 123.808L63.1435 120.8H64.7595V128H62.9195V123.6L60.7915 126.288H60.7435L58.5515 123.6V128ZM72.0359 128H70.1959V120.8H75.0279V122.528H72.0359V128ZM76.5855 127.12C75.8708 126.405 75.5135 125.499 75.5135 124.4C75.5135 123.301 75.8708 122.4 76.5855 121.696C77.3002 120.981 78.2495 120.624 79.4335 120.624C80.6068 120.624 81.5508 120.981 82.2655 121.696C82.9908 122.4 83.3535 123.301 83.3535 124.4C83.3535 125.488 82.9908 126.395 82.2655 127.12C81.5402 127.824 80.5962 128.176 79.4335 128.176C78.2495 128.176 77.3002 127.824 76.5855 127.12ZM78.0415 122.928C77.6682 123.312 77.4815 123.803 77.4815 124.4C77.4815 124.997 77.6628 125.493 78.0255 125.888C78.3988 126.272 78.8682 126.464 79.4335 126.464C80.0095 126.464 80.4788 126.272 80.8415 125.888C81.2148 125.504 81.4015 125.008 81.4015 124.4C81.4015 123.803 81.2148 123.312 80.8415 122.928C80.4682 122.544 79.9988 122.352 79.4335 122.352C78.8788 122.352 78.4148 122.544 78.0415 122.928ZM84.9459 128V120.8C85.0419 120.8 85.4472 120.789 86.1619 120.768C86.8872 120.736 87.4259 120.72 87.7779 120.72C89.9539 120.72 91.0419 121.349 91.0419 122.608C91.0419 123.013 90.9139 123.371 90.6579 123.68C90.4019 123.979 90.0819 124.155 89.6979 124.208V124.24C90.7219 124.485 91.2339 125.04 91.2339 125.904C91.2339 127.355 90.0925 128.08 87.8099 128.08C87.4792 128.08 86.9725 128.064 86.2899 128.032C86.1192 128.032 85.9219 128.027 85.6979 128.016C85.4845 128.016 85.3192 128.011 85.2019 128C85.0952 128 85.0099 128 84.9459 128ZM87.9379 124.944H86.7859V126.544C87.4259 126.587 87.8312 126.608 88.0019 126.608C88.4072 126.608 88.7219 126.533 88.9459 126.384C89.1805 126.235 89.2979 126.032 89.2979 125.776C89.2979 125.221 88.8445 124.944 87.9379 124.944ZM87.9379 122.208C87.5112 122.208 87.1272 122.219 86.7859 122.24V123.824H87.9859C88.3165 123.824 88.5832 123.749 88.7859 123.6C88.9885 123.451 89.0899 123.248 89.0899 122.992C89.0899 122.469 88.7059 122.208 87.9379 122.208ZM93.6011 127.12C92.8865 126.405 92.5291 125.499 92.5291 124.4C92.5291 123.301 92.8865 122.4 93.6011 121.696C94.3158 120.981 95.2651 120.624 96.4491 120.624C97.6225 120.624 98.5665 120.981 99.2811 121.696C100.006 122.4 100.369 123.301 100.369 124.4C100.369 125.488 100.006 126.395 99.2811 127.12C98.5558 127.824 97.6118 128.176 96.4491 128.176C95.2651 128.176 94.3158 127.824 93.6011 127.12ZM95.0571 122.928C94.6838 123.312 94.4971 123.803 94.4971 124.4C94.4971 124.997 94.6785 125.493 95.0411 125.888C95.4145 126.272 95.8838 126.464 96.4491 126.464C97.0251 126.464 97.4945 126.272 97.8571 125.888C98.2305 125.504 98.4171 125.008 98.4171 124.4C98.4171 123.803 98.2305 123.312 97.8571 122.928C97.4838 122.544 97.0145 122.352 96.4491 122.352C95.8945 122.352 95.4305 122.544 95.0571 122.928ZM103.802 131.2H101.962V120.8H103.802V121.488C104.036 121.232 104.356 121.024 104.762 120.864C105.167 120.704 105.588 120.624 106.026 120.624C107.018 120.624 107.807 120.965 108.394 121.648C108.991 122.341 109.29 123.221 109.29 124.288C109.29 125.408 108.938 126.336 108.234 127.072C107.53 127.808 106.612 128.176 105.482 128.176C104.756 128.176 104.196 128.059 103.802 127.824V131.2ZM105.45 122.352C104.81 122.352 104.26 122.613 103.802 123.136V126.048C104.239 126.325 104.746 126.464 105.322 126.464C105.93 126.464 106.415 126.267 106.778 125.872C107.151 125.477 107.338 124.965 107.338 124.336C107.338 123.739 107.167 123.259 106.826 122.896C106.495 122.533 106.036 122.352 105.45 122.352ZM114.028 120.8H116.38V128H114.54V125.84H113.516L112.028 128H109.916L111.836 125.44C111.442 125.301 111.111 125.051 110.844 124.688C110.578 124.315 110.444 123.872 110.444 123.36C110.444 122.571 110.743 121.947 111.34 121.488C111.948 121.029 112.844 120.8 114.028 120.8ZM112.412 123.488C112.412 123.765 112.53 124 112.764 124.192C112.999 124.384 113.271 124.48 113.58 124.48H114.54V122.4H113.724C113.319 122.4 112.999 122.507 112.764 122.72C112.53 122.923 112.412 123.179 112.412 123.488ZM120.046 122.64H117.678V120.8H124.238V122.64H121.886V128H120.046V122.64Z" fill="#231F20"/>
</svg>
