<svg width="225" height="121" viewBox="0 0 225 121" fill="none" xmlns="http://www.w3.org/2000/svg">
<path d="M0 61.5C0 49.0736 10.0736 39 22.5 39H205C216.046 39 225 47.9543 225 59V84H22.5C10.0736 84 0 73.9264 0 61.5V61.5Z" fill="#FF7E89"/>
<path d="M21.8719 68V57.2C22.0639 57.2 22.4159 57.192 22.9279 57.176C23.4559 57.144 23.9919 57.12 24.5359 57.104C25.0959 57.088 25.6239 57.08 26.1199 57.08C29.3839 57.08 31.0159 58.024 31.0159 59.912C31.0159 60.536 30.8159 61.072 30.4159 61.52C30.0319 61.968 29.5599 62.232 28.9999 62.312V62.36C30.5359 62.728 31.3039 63.56 31.3039 64.856C31.3039 67.032 29.5919 68.12 26.1679 68.12C25.6879 68.12 24.9279 68.096 23.8879 68.048C22.8479 68.016 22.1759 68 21.8719 68ZM26.3599 63.416H24.6319V65.816C25.7199 65.88 26.3279 65.912 26.4559 65.912C27.0639 65.912 27.5359 65.8 27.8719 65.576C28.2239 65.352 28.3999 65.048 28.3999 64.664C28.3999 63.832 27.7199 63.416 26.3599 63.416ZM26.3599 59.312C25.5919 59.312 25.0159 59.328 24.6319 59.36V61.736H26.4319C26.9119 61.736 27.3039 61.632 27.6079 61.424C27.9279 61.2 28.0879 60.888 28.0879 60.488C28.0879 59.704 27.5119 59.312 26.3599 59.312ZM39.0048 68V57.2H46.2528V59.792H41.7648V68H39.0048ZM48.5892 66.68C47.5172 65.608 46.9812 64.248 46.9812 62.6C46.9812 60.952 47.5172 59.6 48.5892 58.544C49.6772 57.472 51.1012 56.936 52.8612 56.936C54.6212 56.936 56.0372 57.472 57.1092 58.544C58.1972 59.6 58.7412 60.952 58.7412 62.6C58.7412 64.248 58.1972 65.608 57.1092 66.68C56.0372 67.736 54.6212 68.264 52.8612 68.264C51.1012 68.264 49.6772 67.736 48.5892 66.68ZM49.9332 62.6C49.9332 63.496 50.2052 64.24 50.7492 64.832C51.3092 65.408 52.0132 65.696 52.8612 65.696C53.7252 65.696 54.4292 65.416 54.9732 64.856C55.5332 64.28 55.8132 63.528 55.8132 62.6C55.8132 61.704 55.5332 60.968 54.9732 60.392C54.4132 59.816 53.7092 59.528 52.8612 59.528C52.0292 59.528 51.3332 59.816 50.7732 60.392C50.2132 60.952 49.9332 61.688 49.9332 62.6ZM61.1298 72.8V57.2H63.8898V58.232C64.2418 57.864 64.7138 57.56 65.3058 57.32C65.9138 57.064 66.5538 56.936 67.2258 56.936C68.6978 56.936 69.8818 57.448 70.7778 58.472C71.6738 59.496 72.1218 60.816 72.1218 62.432C72.1218 64.112 71.5938 65.504 70.5378 66.608C69.4818 67.712 68.1058 68.264 66.4098 68.264C65.3378 68.264 64.4978 68.088 63.8898 67.736V72.8H61.1298ZM66.3618 59.528C65.4178 59.528 64.5938 59.92 63.8898 60.704V65.072C64.5298 65.488 65.2898 65.696 66.1698 65.696C67.0978 65.696 67.8338 65.4 68.3778 64.808C68.9218 64.2 69.1938 63.432 69.1938 62.504C69.1938 61.624 68.9458 60.912 68.4498 60.368C67.9538 59.808 67.2578 59.528 66.3618 59.528ZM75.4486 66.68C74.3766 65.608 73.8406 64.248 73.8406 62.6C73.8406 60.952 74.3766 59.6 75.4486 58.544C76.5366 57.472 77.9606 56.936 79.7206 56.936C81.4806 56.936 82.8966 57.472 83.9686 58.544C85.0566 59.6 85.6006 60.952 85.6006 62.6C85.6006 64.248 85.0566 65.608 83.9686 66.68C82.8966 67.736 81.4806 68.264 79.7206 68.264C77.9606 68.264 76.5366 67.736 75.4486 66.68ZM76.7926 62.6C76.7926 63.496 77.0646 64.24 77.6086 64.832C78.1686 65.408 78.8726 65.696 79.7206 65.696C80.5846 65.696 81.2886 65.416 81.8326 64.856C82.3926 64.28 82.6726 63.528 82.6726 62.6C82.6726 61.704 82.3926 60.968 81.8326 60.392C81.2726 59.816 80.5686 59.528 79.7206 59.528C78.8886 59.528 78.1926 59.816 77.6326 60.392C77.0726 60.952 76.7926 61.688 76.7926 62.6ZM86.3416 70.52V65.432H87.7096C88.5576 64.312 89.0616 62.432 89.2216 59.792L89.3896 57.2H97.3576V65.432H99.1576V70.52H96.5656V68H88.9096V70.52H86.3416ZM91.8856 60.896C91.6936 62.992 91.2616 64.504 90.5896 65.432H94.5976V59.792H91.9576L91.8856 60.896ZM101.814 59.984L101.118 57.968C102.286 57.28 103.558 56.936 104.934 56.936C106.47 56.936 107.574 57.312 108.246 58.064C108.918 58.816 109.254 59.936 109.254 61.424V68H106.854V66.752C106.198 67.68 105.134 68.144 103.662 68.144C102.654 68.144 101.838 67.848 101.214 67.256C100.59 66.664 100.278 65.856 100.278 64.832C100.278 63.696 100.646 62.832 101.382 62.24C102.118 61.632 103.062 61.328 104.214 61.328C105.206 61.328 106.022 61.56 106.662 62.024C106.694 61.08 106.558 60.384 106.254 59.936C105.95 59.472 105.414 59.24 104.646 59.24C103.846 59.24 102.902 59.488 101.814 59.984ZM104.574 65.816C105.502 65.816 106.198 65.488 106.662 64.832V63.728C106.198 63.376 105.566 63.2 104.766 63.2C104.27 63.2 103.854 63.32 103.518 63.56C103.198 63.784 103.038 64.112 103.038 64.544C103.038 64.944 103.182 65.256 103.47 65.48C103.758 65.704 104.126 65.816 104.574 65.816ZM122.403 57.2L118.803 62.36L122.643 68H119.283L116.763 64.112L114.147 68H110.955L114.795 62.504L111.195 57.2H114.579L116.859 60.776L119.211 57.2H122.403ZM133.452 68H130.5V51.2C130.788 51.2 131.548 51.192 132.78 51.176C134.028 51.16 134.86 51.152 135.276 51.152C136.46 51.152 137.484 51.304 138.348 51.608C139.228 51.896 139.908 52.304 140.388 52.832C140.868 53.344 141.22 53.912 141.444 54.536C141.668 55.144 141.78 55.816 141.78 56.552C141.78 58.072 141.236 59.36 140.148 60.416C139.06 61.472 137.556 62 135.636 62C134.66 62 133.932 61.976 133.452 61.928V68ZM135.564 53.912C135.212 53.912 134.508 53.928 133.452 53.96V59.12C134.22 59.2 134.916 59.24 135.54 59.24C136.468 59.24 137.22 59.016 137.796 58.568C138.372 58.104 138.66 57.424 138.66 56.528C138.66 54.784 137.628 53.912 135.564 53.912ZM143.91 66.68C142.838 65.608 142.302 64.248 142.302 62.6C142.302 60.952 142.838 59.6 143.91 58.544C144.998 57.472 146.422 56.936 148.182 56.936C149.942 56.936 151.358 57.472 152.43 58.544C153.518 59.6 154.062 60.952 154.062 62.6C154.062 64.248 153.518 65.608 152.43 66.68C151.358 67.736 149.942 68.264 148.182 68.264C146.422 68.264 144.998 67.736 143.91 66.68ZM145.254 62.6C145.254 63.496 145.526 64.24 146.07 64.832C146.63 65.408 147.334 65.696 148.182 65.696C149.046 65.696 149.75 65.416 150.294 64.856C150.854 64.28 151.134 63.528 151.134 62.6C151.134 61.704 150.854 60.968 150.294 60.392C149.734 59.816 149.03 59.528 148.182 59.528C147.35 59.528 146.654 59.816 146.094 60.392C145.534 60.952 145.254 61.688 145.254 62.6ZM164.634 64.376L165.93 66.392C165.482 67 164.874 67.464 164.106 67.784C163.354 68.104 162.53 68.264 161.634 68.264C159.874 68.264 158.458 67.744 157.386 66.704C156.314 65.664 155.778 64.296 155.778 62.6C155.778 61 156.306 59.656 157.362 58.568C158.418 57.48 159.754 56.936 161.37 56.936C163.29 56.936 164.738 57.424 165.714 58.4L164.418 60.584C163.698 59.88 162.802 59.528 161.73 59.528C160.93 59.528 160.226 59.816 159.618 60.392C159.026 60.952 158.73 61.688 158.73 62.6C158.73 63.528 159.034 64.28 159.642 64.856C160.266 65.416 161.002 65.696 161.85 65.696C162.906 65.696 163.834 65.256 164.634 64.376ZM175.743 64.376L177.039 66.392C176.591 67 175.983 67.464 175.215 67.784C174.463 68.104 173.639 68.264 172.743 68.264C170.983 68.264 169.567 67.744 168.495 66.704C167.423 65.664 166.887 64.296 166.887 62.6C166.887 61 167.415 59.656 168.471 58.568C169.527 57.48 170.863 56.936 172.479 56.936C174.399 56.936 175.847 57.424 176.823 58.4L175.527 60.584C174.807 59.88 173.911 59.528 172.839 59.528C172.039 59.528 171.335 59.816 170.727 60.392C170.135 60.952 169.839 61.688 169.839 62.6C169.839 63.528 170.143 64.28 170.751 64.856C171.375 65.416 172.111 65.696 172.959 65.696C174.015 65.696 174.943 65.256 175.743 64.376ZM182.015 68H179.255V57.2H182.015V64.04L187.055 57.2H189.815V68H187.055V61.16L182.015 68ZM195.655 68H192.895V57.2H195.655V64.04L200.695 57.2H203.455V68H200.695V61.16L195.655 68Z" fill="white"/>
<path d="M0 22.5C0 10.0736 10.0736 0 22.5 0H170.5C182.926 0 193 10.0736 193 22.5V22.5C193 34.9264 182.926 45 170.5 45H22.5C10.0736 45 0 34.9264 0 22.5V22.5Z" fill="#FF7E89"/>
<path d="M21.08 20.6C21.08 18.136 21.896 16.08 23.528 14.432C25.176 12.768 27.272 11.936 29.816 11.936C32.344 11.936 34.432 12.736 36.08 14.336C37.744 15.936 38.576 18.024 38.576 20.6C38.576 23.112 37.744 25.184 36.08 26.816C34.416 28.448 32.328 29.264 29.816 29.264C27.288 29.264 25.2 28.464 23.552 26.864C21.904 25.264 21.08 23.176 21.08 20.6ZM24.2 20.6C24.2 22.28 24.736 23.688 25.808 24.824C26.896 25.944 28.232 26.504 29.816 26.504C31.544 26.504 32.912 25.944 33.92 24.824C34.944 23.704 35.456 22.296 35.456 20.6C35.456 18.872 34.912 17.456 33.824 16.352C32.752 15.248 31.416 14.696 29.816 14.696C28.2 14.696 26.856 15.248 25.784 16.352C24.728 17.456 24.2 18.872 24.2 20.6ZM54.998 18.2V29H52.238V25.28C51.454 25.696 50.558 25.904 49.55 25.904C48.19 25.904 47.198 25.552 46.574 24.848C45.95 24.128 45.638 23.064 45.638 21.656V18.2H48.59V21.32C48.59 22.648 49.174 23.312 50.342 23.312C51.11 23.312 51.742 23.168 52.238 22.88V18.2H54.998ZM66.5471 25.976L67.3391 27.92C66.2831 28.816 64.9071 29.264 63.2111 29.264C61.4671 29.264 60.0591 28.744 58.9871 27.704C57.9311 26.664 57.4031 25.296 57.4031 23.6C57.4031 21.984 57.9231 20.64 58.9631 19.568C60.0031 18.48 61.3871 17.936 63.1151 17.936C64.5391 17.936 65.7471 18.408 66.7391 19.352C67.7311 20.28 68.2271 21.48 68.2271 22.952C68.2271 23.56 68.1711 24.056 68.0591 24.44H60.2591C60.3711 25.24 60.7231 25.864 61.3151 26.312C61.9071 26.744 62.6351 26.96 63.4991 26.96C64.7151 26.96 65.7311 26.632 66.5471 25.976ZM62.9951 20.24C61.4271 20.24 60.4831 21.024 60.1631 22.592H65.4671C65.4831 21.92 65.2671 21.36 64.8191 20.912C64.3711 20.464 63.7631 20.24 62.9951 20.24ZM70.4501 29V18.2H72.9461L76.6181 22.712L80.0981 18.2H82.5221V29H79.7621V22.4L76.5701 26.432H76.4981L73.2101 22.4V29H70.4501ZM90.6766 29V18.2H97.9246V20.792H93.4366V29H90.6766ZM100.261 27.68C99.1891 26.608 98.6531 25.248 98.6531 23.6C98.6531 21.952 99.1891 20.6 100.261 19.544C101.349 18.472 102.773 17.936 104.533 17.936C106.293 17.936 107.709 18.472 108.781 19.544C109.869 20.6 110.413 21.952 110.413 23.6C110.413 25.248 109.869 26.608 108.781 27.68C107.709 28.736 106.293 29.264 104.533 29.264C102.773 29.264 101.349 28.736 100.261 27.68ZM101.605 23.6C101.605 24.496 101.877 25.24 102.421 25.832C102.981 26.408 103.685 26.696 104.533 26.696C105.397 26.696 106.101 26.416 106.645 25.856C107.205 25.28 107.485 24.528 107.485 23.6C107.485 22.704 107.205 21.968 106.645 21.392C106.085 20.816 105.381 20.528 104.533 20.528C103.701 20.528 103.005 20.816 102.445 21.392C101.885 21.952 101.605 22.688 101.605 23.6ZM112.802 29V18.2C112.994 18.2 113.346 18.192 113.858 18.176C114.386 18.144 114.922 18.12 115.466 18.104C116.026 18.088 116.554 18.08 117.05 18.08C120.314 18.08 121.946 19.024 121.946 20.912C121.946 21.536 121.746 22.072 121.346 22.52C120.962 22.968 120.49 23.232 119.93 23.312V23.36C121.466 23.728 122.234 24.56 122.234 25.856C122.234 28.032 120.522 29.12 117.098 29.12C116.618 29.12 115.858 29.096 114.818 29.048C113.778 29.016 113.106 29 112.802 29ZM117.29 24.416H115.562V26.816C116.65 26.88 117.258 26.912 117.386 26.912C117.994 26.912 118.466 26.8 118.802 26.576C119.154 26.352 119.33 26.048 119.33 25.664C119.33 24.832 118.65 24.416 117.29 24.416ZM117.29 20.312C116.522 20.312 115.946 20.328 115.562 20.36V22.736H117.362C117.842 22.736 118.234 22.632 118.538 22.424C118.858 22.2 119.018 21.888 119.018 21.488C119.018 20.704 118.442 20.312 117.29 20.312ZM125.785 27.68C124.713 26.608 124.177 25.248 124.177 23.6C124.177 21.952 124.713 20.6 125.785 19.544C126.873 18.472 128.297 17.936 130.057 17.936C131.817 17.936 133.233 18.472 134.305 19.544C135.393 20.6 135.937 21.952 135.937 23.6C135.937 25.248 135.393 26.608 134.305 27.68C133.233 28.736 131.817 29.264 130.057 29.264C128.297 29.264 126.873 28.736 125.785 27.68ZM127.129 23.6C127.129 24.496 127.401 25.24 127.945 25.832C128.505 26.408 129.209 26.696 130.057 26.696C130.921 26.696 131.625 26.416 132.169 25.856C132.729 25.28 133.009 24.528 133.009 23.6C133.009 22.704 132.729 21.968 132.169 21.392C131.609 20.816 130.905 20.528 130.057 20.528C129.225 20.528 128.529 20.816 127.969 21.392C127.409 21.952 127.129 22.688 127.129 23.6ZM138.325 33.8V18.2H141.085V19.232C141.437 18.864 141.909 18.56 142.501 18.32C143.109 18.064 143.749 17.936 144.421 17.936C145.893 17.936 147.077 18.448 147.973 19.472C148.869 20.496 149.317 21.816 149.317 23.432C149.317 25.112 148.789 26.504 147.733 27.608C146.677 28.712 145.301 29.264 143.605 29.264C142.533 29.264 141.693 29.088 141.085 28.736V33.8H138.325ZM143.557 20.528C142.613 20.528 141.789 20.92 141.085 21.704V26.072C141.725 26.488 142.485 26.696 143.365 26.696C144.293 26.696 145.029 26.4 145.573 25.808C146.117 25.2 146.389 24.432 146.389 23.504C146.389 22.624 146.141 21.912 145.645 21.368C145.149 20.808 144.453 20.528 143.557 20.528ZM156.425 18.2H159.953V29H157.193V25.76H155.657L153.425 29H150.257L153.137 25.16C152.593 24.968 152.105 24.608 151.673 24.08C151.257 23.536 151.049 22.856 151.049 22.04C151.049 20.904 151.481 19.984 152.345 19.28C153.225 18.56 154.585 18.2 156.425 18.2ZM154.001 22.232C154.001 22.664 154.177 23.024 154.529 23.312C154.897 23.584 155.305 23.72 155.753 23.72H157.193V20.6H155.969C155.345 20.6 154.857 20.76 154.505 21.08C154.169 21.4 154.001 21.784 154.001 22.232ZM161.9 20.96V18.2H171.74V20.96H168.212V29H165.452V20.96H161.9Z" fill="white"/>
<path d="M8.64 101V96.216H3.52V101H1.552V89.8H3.52V94.376H8.64V89.8H10.592V101H8.64ZM13.7246 95.656L13.2606 94.312C14.0393 93.8533 14.8873 93.624 15.8046 93.624C16.8286 93.624 17.5646 93.8747 18.0126 94.376C18.4606 94.8773 18.6846 95.624 18.6846 96.616V101H17.0846V100.168C16.6473 100.787 15.938 101.096 14.9566 101.096C14.2846 101.096 13.7406 100.899 13.3246 100.504C12.9086 100.109 12.7006 99.5707 12.7006 98.888C12.7006 98.1307 12.946 97.5547 13.4366 97.16C13.9273 96.7547 14.5566 96.552 15.3246 96.552C15.986 96.552 16.53 96.7067 16.9566 97.016C16.978 96.3867 16.8873 95.9227 16.6846 95.624C16.482 95.3147 16.1246 95.16 15.6126 95.16C15.0793 95.16 14.45 95.3253 13.7246 95.656ZM15.5646 99.544C16.1833 99.544 16.6473 99.3253 16.9566 98.888V98.152C16.6473 97.9173 16.226 97.8 15.6926 97.8C15.362 97.8 15.0846 97.88 14.8606 98.04C14.6473 98.1893 14.5406 98.408 14.5406 98.696C14.5406 98.9627 14.6366 99.1707 14.8286 99.32C15.0206 99.4693 15.266 99.544 15.5646 99.544ZM30.5709 93.8L28.1869 97.288L30.7629 101H28.5869L26.1869 97.288L28.3949 93.8H30.5709ZM24.2669 101V93.8H26.1069V101H24.2669ZM22.2029 97.288L19.8029 93.8H22.0429L24.1869 97.288L21.8509 101H19.6589L22.2029 97.288ZM31.9146 101V93.8H33.5786L36.0266 96.808L38.3466 93.8H39.9626V101H38.1226V96.6L35.9946 99.288H35.9466L33.7546 96.6V101H31.9146ZM43.8484 101H42.0084V93.8H43.8484V98.36L47.2084 93.8H49.0484V101H47.2084V96.44L43.8484 101ZM59.4848 101V98.248H56.3328V101H54.4928V93.8H56.3328V96.52H59.4848V93.8H61.3248V101H59.4848ZM63.9278 95.656L63.4638 94.312C64.2424 93.8533 65.0904 93.624 66.0078 93.624C67.0318 93.624 67.7678 93.8747 68.2158 94.376C68.6638 94.8773 68.8878 95.624 68.8878 96.616V101H67.2878V100.168C66.8504 100.787 66.1411 101.096 65.1598 101.096C64.4878 101.096 63.9438 100.899 63.5278 100.504C63.1118 100.109 62.9038 99.5707 62.9038 98.888C62.9038 98.1307 63.1491 97.5547 63.6398 97.16C64.1304 96.7547 64.7598 96.552 65.5278 96.552C66.1891 96.552 66.7331 96.7067 67.1598 97.016C67.1811 96.3867 67.0904 95.9227 66.8878 95.624C66.6851 95.3147 66.3278 95.16 65.8158 95.16C65.2824 95.16 64.6531 95.3253 63.9278 95.656ZM65.7678 99.544C66.3864 99.544 66.8504 99.3253 67.1598 98.888V98.152C66.8504 97.9173 66.4291 97.8 65.8958 97.8C65.5651 97.8 65.2878 97.88 65.0638 98.04C64.8504 98.1893 64.7438 98.408 64.7438 98.696C64.7438 98.9627 64.8398 99.1707 65.0318 99.32C65.2238 99.4693 65.4691 99.544 65.7678 99.544ZM74.1646 101V93.8H78.9966V95.528H76.0046V101H74.1646ZM80.5543 100.12C79.8396 99.4053 79.4823 98.4987 79.4823 97.4C79.4823 96.3013 79.8396 95.4 80.5543 94.696C81.2796 93.9813 82.2289 93.624 83.4023 93.624C84.5756 93.624 85.5196 93.9813 86.2343 94.696C86.9596 95.4 87.3223 96.3013 87.3223 97.4C87.3223 98.4987 86.9596 99.4053 86.2343 100.12C85.5196 100.824 84.5756 101.176 83.4023 101.176C82.2289 101.176 81.2796 100.824 80.5543 100.12ZM81.4503 97.4C81.4503 97.9973 81.6316 98.4933 81.9943 98.888C82.3676 99.272 82.8369 99.464 83.4023 99.464C83.9783 99.464 84.4476 99.2773 84.8103 98.904C85.1836 98.52 85.3703 98.0187 85.3703 97.4C85.3703 96.8027 85.1836 96.312 84.8103 95.928C84.4369 95.544 83.9676 95.352 83.4023 95.352C82.8476 95.352 82.3836 95.544 82.0103 95.928C81.6369 96.3013 81.4503 96.792 81.4503 97.4ZM88.9146 104.2V93.8H90.7546V94.488C90.9893 94.2427 91.304 94.04 91.6986 93.88C92.104 93.7093 92.5306 93.624 92.9786 93.624C93.96 93.624 94.7493 93.9653 95.3466 94.648C95.944 95.3307 96.2426 96.2107 96.2426 97.288C96.2426 98.408 95.8906 99.336 95.1866 100.072C94.4826 100.808 93.5653 101.176 92.4346 101.176C91.72 101.176 91.16 101.059 90.7546 100.824V104.2H88.9146ZM92.4026 95.352C91.7733 95.352 91.224 95.6133 90.7546 96.136V99.048C91.1813 99.3253 91.688 99.464 92.2746 99.464C92.8933 99.464 93.384 99.2667 93.7466 98.872C94.1093 98.4667 94.2906 97.9547 94.2906 97.336C94.2906 96.7493 94.1253 96.2747 93.7946 95.912C93.464 95.5387 93 95.352 92.4026 95.352ZM98.4605 100.12C97.7458 99.4053 97.3885 98.4987 97.3885 97.4C97.3885 96.3013 97.7458 95.4 98.4605 94.696C99.1858 93.9813 100.135 93.624 101.309 93.624C102.482 93.624 103.426 93.9813 104.141 94.696C104.866 95.4 105.229 96.3013 105.229 97.4C105.229 98.4987 104.866 99.4053 104.141 100.12C103.426 100.824 102.482 101.176 101.309 101.176C100.135 101.176 99.1858 100.824 98.4605 100.12ZM99.3565 97.4C99.3565 97.9973 99.5378 98.4933 99.9005 98.888C100.274 99.272 100.743 99.464 101.309 99.464C101.885 99.464 102.354 99.2773 102.717 98.904C103.09 98.52 103.277 98.0187 103.277 97.4C103.277 96.8027 103.09 96.312 102.717 95.928C102.343 95.544 101.874 95.352 101.309 95.352C100.754 95.352 100.29 95.544 99.9165 95.928C99.5432 96.3013 99.3565 96.792 99.3565 97.4ZM105.723 102.68V99.288H106.635C107.2 98.5413 107.536 97.288 107.643 95.528L107.755 93.8H113.067V99.288H114.267V102.68H112.539V101H107.435V102.68H105.723ZM109.419 96.264C109.291 97.6613 109.003 98.6693 108.555 99.288H111.227V95.528H109.467L109.419 96.264ZM120.708 101H118.868V93.8H120.708V98.36L124.068 93.8H125.908V101H124.068V96.44L120.708 101ZM138.296 93.8L135.464 101C134.952 102.248 134.493 103.091 134.088 103.528C133.693 103.976 133.224 104.2 132.68 104.2C132.157 104.2 131.64 104.013 131.128 103.64L131.72 102.248C132.008 102.419 132.259 102.504 132.472 102.504C132.909 102.504 133.277 102.131 133.576 101.384L133.736 101L130.408 93.8H132.616L134.296 97.736C134.36 97.896 134.477 98.2427 134.648 98.776C134.733 98.3067 134.819 97.9547 134.904 97.72L136.2 93.8H138.296ZM141.943 101.176C141.314 101.176 140.7 101.064 140.103 100.84C139.506 100.605 139.074 100.317 138.807 99.976L139.751 98.824C139.964 99.0693 140.268 99.2773 140.663 99.448C141.068 99.6187 141.442 99.704 141.783 99.704C142.252 99.704 142.615 99.624 142.871 99.464C143.127 99.304 143.255 99.0907 143.255 98.824C143.255 98.5787 143.159 98.3813 142.967 98.232C142.775 98.0827 142.508 98.008 142.167 98.008H140.823V96.776H142.087C142.375 96.776 142.604 96.6907 142.775 96.52C142.956 96.3493 143.047 96.1413 143.047 95.896C143.047 95.3733 142.626 95.112 141.783 95.112C141.122 95.112 140.466 95.3893 139.815 95.944L139.047 94.84C139.74 94.0293 140.77 93.624 142.135 93.624C143.074 93.624 143.788 93.8053 144.279 94.168C144.77 94.5307 145.015 95.032 145.015 95.672C145.015 96.024 144.898 96.344 144.663 96.632C144.428 96.92 144.103 97.1333 143.687 97.272V97.304C144.178 97.4 144.551 97.6027 144.807 97.912C145.074 98.2107 145.207 98.5733 145.207 99C145.207 99.672 144.908 100.205 144.311 100.6C143.714 100.984 142.924 101.176 141.943 101.176ZM151.938 101V98.248H148.786V101H146.946V93.8H148.786V96.52H151.938V93.8H153.778V101H151.938ZM156.381 95.656L155.917 94.312C156.696 93.8533 157.544 93.624 158.461 93.624C159.485 93.624 160.221 93.8747 160.669 94.376C161.117 94.8773 161.341 95.624 161.341 96.616V101H159.741V100.168C159.304 100.787 158.594 101.096 157.613 101.096C156.941 101.096 156.397 100.899 155.981 100.504C155.565 100.109 155.357 99.5707 155.357 98.888C155.357 98.1307 155.602 97.5547 156.093 97.16C156.584 96.7547 157.213 96.552 157.981 96.552C158.642 96.552 159.186 96.7067 159.613 97.016C159.634 96.3867 159.544 95.9227 159.341 95.624C159.138 95.3147 158.781 95.16 158.269 95.16C157.736 95.16 157.106 95.3253 156.381 95.656ZM158.221 99.544C158.84 99.544 159.304 99.3253 159.613 98.888V98.152C159.304 97.9173 158.882 97.8 158.349 97.8C158.018 97.8 157.741 97.88 157.517 98.04C157.304 98.1893 157.197 98.408 157.197 98.696C157.197 98.9627 157.293 99.1707 157.485 99.32C157.677 99.4693 157.922 99.544 158.221 99.544ZM165.067 101H163.227V93.8H165.067V98.36L168.427 93.8H170.267V101H168.427V96.44L165.067 101ZM164.299 90.2H165.979C165.979 90.5307 166.043 90.808 166.171 91.032C166.31 91.256 166.523 91.368 166.811 91.368C167.067 91.368 167.259 91.256 167.387 91.032C167.515 90.808 167.579 90.5307 167.579 90.2H169.259C169.259 90.9253 169.046 91.5227 168.619 91.992C168.192 92.4507 167.59 92.68 166.811 92.68C165.958 92.68 165.323 92.456 164.907 92.008C164.502 91.5493 164.299 90.9467 164.299 90.2ZM172.049 99.976C172.049 99.6347 172.156 99.3573 172.369 99.144C172.593 98.92 172.897 98.808 173.281 98.808C173.708 98.808 174.049 98.9787 174.305 99.32C174.561 99.6507 174.689 100.077 174.689 100.6C174.689 101.272 174.508 101.848 174.145 102.328C173.793 102.808 173.297 103.139 172.657 103.32L172.161 102.456C172.63 102.285 172.956 102.003 173.137 101.608C173.297 101.277 173.345 101.032 173.281 100.872C173.217 100.957 173.078 101 172.865 101C172.652 101 172.46 100.904 172.289 100.712C172.129 100.509 172.049 100.264 172.049 99.976ZM6.832 109.8V117H4.992V114.52C4.46933 114.797 3.872 114.936 3.2 114.936C2.29333 114.936 1.632 114.701 1.216 114.232C0.8 113.752 0.592 113.043 0.592 112.104V109.8H2.56V111.88C2.56 112.765 2.94933 113.208 3.728 113.208C4.24 113.208 4.66133 113.112 4.992 112.92V109.8H6.832ZM8.13138 111.64V109.8H14.6914V111.64H12.3394V117H10.4994V111.64H8.13138ZM16.4136 116.12C15.699 115.405 15.3416 114.499 15.3416 113.4C15.3416 112.301 15.699 111.4 16.4136 110.696C17.139 109.981 18.0883 109.624 19.2616 109.624C20.435 109.624 21.379 109.981 22.0936 110.696C22.819 111.4 23.1816 112.301 23.1816 113.4C23.1816 114.499 22.819 115.405 22.0936 116.12C21.379 116.824 20.435 117.176 19.2616 117.176C18.0883 117.176 17.139 116.824 16.4136 116.12ZM17.3096 113.4C17.3096 113.997 17.491 114.493 17.8536 114.888C18.227 115.272 18.6963 115.464 19.2616 115.464C19.8376 115.464 20.307 115.277 20.6696 114.904C21.043 114.52 21.2296 114.019 21.2296 113.4C21.2296 112.803 21.043 112.312 20.6696 111.928C20.2963 111.544 19.827 111.352 19.2616 111.352C18.707 111.352 18.243 111.544 17.8696 111.928C17.4963 112.301 17.3096 112.792 17.3096 113.4ZM28.1646 117V109.8C28.2926 109.8 28.5273 109.795 28.8686 109.784C29.2206 109.763 29.578 109.747 29.9406 109.736C30.314 109.725 30.666 109.72 30.9966 109.72C33.1726 109.72 34.2606 110.349 34.2606 111.608C34.2606 112.024 34.1273 112.381 33.8606 112.68C33.6046 112.979 33.29 113.155 32.9166 113.208V113.24C33.9406 113.485 34.4526 114.04 34.4526 114.904C34.4526 116.355 33.3113 117.08 31.0286 117.08C30.7086 117.08 30.202 117.064 29.5086 117.032C28.8153 117.011 28.3673 117 28.1646 117ZM31.1566 113.944H30.0046V115.544C30.73 115.587 31.1353 115.608 31.2206 115.608C31.626 115.608 31.9406 115.533 32.1646 115.384C32.3993 115.235 32.5166 115.032 32.5166 114.776C32.5166 114.221 32.0633 113.944 31.1566 113.944ZM31.1566 111.208C30.6446 111.208 30.2606 111.219 30.0046 111.24V112.824H31.2046C31.5246 112.824 31.786 112.755 31.9886 112.616C32.202 112.467 32.3086 112.259 32.3086 111.992C32.3086 111.469 31.9246 111.208 31.1566 111.208ZM44.5785 117V114.248H41.4265V117H39.5865V109.8H41.4265V112.52H44.5785V109.8H46.4185V117H44.5785ZM54.1095 114.984L54.6375 116.28C53.9335 116.877 53.0162 117.176 51.8855 117.176C50.7228 117.176 49.7842 116.829 49.0695 116.136C48.3655 115.443 48.0135 114.531 48.0135 113.4C48.0135 112.323 48.3602 111.427 49.0535 110.712C49.7468 109.987 50.6695 109.624 51.8215 109.624C52.7708 109.624 53.5762 109.939 54.2375 110.568C54.8988 111.187 55.2295 111.987 55.2295 112.968C55.2295 113.373 55.1922 113.704 55.1175 113.96H49.9175C49.9922 114.493 50.2268 114.909 50.6215 115.208C51.0162 115.496 51.5015 115.64 52.0775 115.64C52.8882 115.64 53.5655 115.421 54.1095 114.984ZM51.7415 111.16C50.6962 111.16 50.0668 111.683 49.8535 112.728H53.3895C53.4002 112.28 53.2562 111.907 52.9575 111.608C52.6588 111.309 52.2535 111.16 51.7415 111.16ZM49.1815 107.416C49.1815 107.107 49.2828 106.861 49.4855 106.68C49.6882 106.488 49.9335 106.392 50.2215 106.392C50.4775 106.392 50.7015 106.488 50.8935 106.68C51.0855 106.861 51.1815 107.107 51.1815 107.416C51.1815 107.747 51.0855 108.008 50.8935 108.2C50.7015 108.392 50.4775 108.488 50.2215 108.488C49.9335 108.488 49.6882 108.392 49.4855 108.2C49.2828 108.008 49.1815 107.747 49.1815 107.416ZM52.3655 107.416C52.3655 107.107 52.4615 106.861 52.6535 106.68C52.8562 106.488 53.1015 106.392 53.3895 106.392C53.6455 106.392 53.8695 106.488 54.0615 106.68C54.2535 106.861 54.3495 107.107 54.3495 107.416C54.3495 107.747 54.2535 108.008 54.0615 108.2C53.8802 108.392 53.6562 108.488 53.3895 108.488C53.1015 108.488 52.8562 108.392 52.6535 108.2C52.4615 108.008 52.3655 107.747 52.3655 107.416ZM56.7115 117V109.8H58.3755L60.8235 112.808L63.1435 109.8H64.7595V117H62.9195V112.6L60.7915 115.288H60.7435L58.5515 112.6V117H56.7115ZM70.1959 117V109.8H75.0279V111.528H72.0359V117H70.1959ZM76.5855 116.12C75.8708 115.405 75.5135 114.499 75.5135 113.4C75.5135 112.301 75.8708 111.4 76.5855 110.696C77.3108 109.981 78.2602 109.624 79.4335 109.624C80.6068 109.624 81.5508 109.981 82.2655 110.696C82.9908 111.4 83.3535 112.301 83.3535 113.4C83.3535 114.499 82.9908 115.405 82.2655 116.12C81.5508 116.824 80.6068 117.176 79.4335 117.176C78.2602 117.176 77.3108 116.824 76.5855 116.12ZM77.4815 113.4C77.4815 113.997 77.6628 114.493 78.0255 114.888C78.3988 115.272 78.8682 115.464 79.4335 115.464C80.0095 115.464 80.4788 115.277 80.8415 114.904C81.2148 114.52 81.4015 114.019 81.4015 113.4C81.4015 112.803 81.2148 112.312 80.8415 111.928C80.4682 111.544 79.9988 111.352 79.4335 111.352C78.8788 111.352 78.4148 111.544 78.0415 111.928C77.6682 112.301 77.4815 112.792 77.4815 113.4ZM84.9459 117V109.8C85.0739 109.8 85.3085 109.795 85.6499 109.784C86.0019 109.763 86.3592 109.747 86.7219 109.736C87.0952 109.725 87.4472 109.72 87.7779 109.72C89.9539 109.72 91.0419 110.349 91.0419 111.608C91.0419 112.024 90.9085 112.381 90.6419 112.68C90.3859 112.979 90.0712 113.155 89.6979 113.208V113.24C90.7219 113.485 91.2339 114.04 91.2339 114.904C91.2339 116.355 90.0925 117.08 87.8099 117.08C87.4899 117.08 86.9832 117.064 86.2899 117.032C85.5965 117.011 85.1485 117 84.9459 117ZM87.9379 113.944H86.7859V115.544C87.5112 115.587 87.9165 115.608 88.0019 115.608C88.4072 115.608 88.7219 115.533 88.9459 115.384C89.1805 115.235 89.2979 115.032 89.2979 114.776C89.2979 114.221 88.8445 113.944 87.9379 113.944ZM87.9379 111.208C87.4259 111.208 87.0419 111.219 86.7859 111.24V112.824H87.9859C88.3059 112.824 88.5672 112.755 88.7699 112.616C88.9832 112.467 89.0899 112.259 89.0899 111.992C89.0899 111.469 88.7059 111.208 87.9379 111.208ZM93.6011 116.12C92.8865 115.405 92.5291 114.499 92.5291 113.4C92.5291 112.301 92.8865 111.4 93.6011 110.696C94.3265 109.981 95.2758 109.624 96.4491 109.624C97.6225 109.624 98.5665 109.981 99.2811 110.696C100.006 111.4 100.369 112.301 100.369 113.4C100.369 114.499 100.006 115.405 99.2811 116.12C98.5665 116.824 97.6225 117.176 96.4491 117.176C95.2758 117.176 94.3265 116.824 93.6011 116.12ZM94.4971 113.4C94.4971 113.997 94.6785 114.493 95.0411 114.888C95.4145 115.272 95.8838 115.464 96.4491 115.464C97.0251 115.464 97.4945 115.277 97.8571 114.904C98.2305 114.52 98.4171 114.019 98.4171 113.4C98.4171 112.803 98.2305 112.312 97.8571 111.928C97.4838 111.544 97.0145 111.352 96.4491 111.352C95.8945 111.352 95.4305 111.544 95.0571 111.928C94.6838 112.301 94.4971 112.792 94.4971 113.4ZM101.962 120.2V109.8H103.802V110.488C104.036 110.243 104.351 110.04 104.746 109.88C105.151 109.709 105.578 109.624 106.026 109.624C107.007 109.624 107.796 109.965 108.394 110.648C108.991 111.331 109.29 112.211 109.29 113.288C109.29 114.408 108.938 115.336 108.234 116.072C107.53 116.808 106.612 117.176 105.482 117.176C104.767 117.176 104.207 117.059 103.802 116.824V120.2H101.962ZM105.45 111.352C104.82 111.352 104.271 111.613 103.802 112.136V115.048C104.228 115.325 104.735 115.464 105.322 115.464C105.94 115.464 106.431 115.267 106.794 114.872C107.156 114.467 107.338 113.955 107.338 113.336C107.338 112.749 107.172 112.275 106.842 111.912C106.511 111.539 106.047 111.352 105.45 111.352ZM114.028 109.8H116.38V117H114.54V114.84H113.516L112.028 117H109.916L111.836 114.44C111.474 114.312 111.148 114.072 110.86 113.72C110.583 113.357 110.444 112.904 110.444 112.36C110.444 111.603 110.732 110.989 111.308 110.52C111.895 110.04 112.802 109.8 114.028 109.8ZM112.412 112.488C112.412 112.776 112.53 113.016 112.764 113.208C113.01 113.389 113.282 113.48 113.58 113.48H114.54V111.4H113.724C113.308 111.4 112.983 111.507 112.748 111.72C112.524 111.933 112.412 112.189 112.412 112.488ZM117.678 111.64V109.8H124.238V111.64H121.886V117H120.046V111.64H117.678Z" fill="#231F20"/>
</svg>
