<svg width="240" height="116" viewBox="0 0 240 116" fill="none" xmlns="http://www.w3.org/2000/svg">
<path d="M127.897 54.7859V50.3736H129.483C129.935 49.8132 130.417 48.6687 130.932 46.9377C131.447 45.2078 131.774 42.9915 131.915 40.2876L132.062 37.3465H140.775V50.3736H142.784V54.7859H141.092V52.0545H129.587V54.7859H127.897ZM133.607 41.6539C133.452 43.8952 133.148 45.7967 132.697 47.3585C132.246 48.9203 131.837 49.9253 131.471 50.3736H138.979V39.0275H133.797L133.607 41.6539Z" fill="#231F20"/>
<path d="M144.943 56.257V42.5993H146.635V43.7128C146.974 43.3206 147.436 43.0023 148.02 42.7567C148.605 42.5123 149.223 42.3895 149.871 42.3895C151.21 42.3895 152.278 42.8342 153.075 43.7235C153.871 44.6129 154.27 45.7646 154.27 47.1797C154.27 48.6365 153.811 49.8478 152.896 50.8147C151.979 51.7815 150.787 52.2644 149.321 52.2644C148.193 52.2644 147.298 52.0474 146.635 51.6134V56.257H144.943V56.257ZM149.385 43.9655C148.257 43.9655 147.34 44.3995 146.635 45.2686V49.9539C147.369 50.4439 148.215 50.6895 149.173 50.6895C150.174 50.6895 150.975 50.3676 151.573 49.7226C152.172 49.0788 152.472 48.2515 152.472 47.2429C152.472 46.2629 152.197 45.4713 151.648 44.8692C151.097 44.2672 150.343 43.9655 149.385 43.9655Z" fill="#231F20"/>
<path d="M164.971 42.5993L161.165 52.0545C160.488 53.6938 159.889 54.8037 159.367 55.3843C158.845 55.9649 158.232 56.2558 157.527 56.2558C156.921 56.2558 156.321 56.0591 155.73 55.6669L156.279 54.3853C156.731 54.5951 157.083 54.7 157.337 54.7C157.731 54.7 158.088 54.5319 158.405 54.1957C158.721 53.8595 159.043 53.3135 159.367 52.5565L159.578 52.0522L155.01 42.5969H157.04L159.831 48.6067C159.888 48.7331 160.077 49.2088 160.403 50.035C160.53 49.5724 160.677 49.0896 160.847 48.5853L163.046 42.5969H164.971V42.5993Z" fill="#231F20"/>
<path d="M166.705 52.0546V42.5993H172.733V44.1754H168.397V52.0546H166.705Z" fill="#231F20"/>
<path d="M174.816 50.8683C173.878 49.9372 173.41 48.7569 173.41 47.3275C173.41 45.8981 173.878 44.719 174.816 43.7867C175.753 42.8556 176.976 42.3895 178.486 42.3895C179.994 42.3895 181.217 42.8556 182.155 43.7867C183.092 44.719 183.562 45.8981 183.562 47.3275C183.562 48.7558 183.092 49.936 182.155 50.8683C181.217 51.8006 179.994 52.2656 178.486 52.2656C176.976 52.2656 175.753 51.7994 174.816 50.8683ZM175.207 47.3275C175.207 48.3087 175.513 49.1134 176.128 49.7441C176.741 50.3747 177.527 50.6895 178.486 50.6895C179.444 50.6895 180.23 50.3783 180.844 49.7548C181.457 49.1313 181.764 48.323 181.764 47.3275C181.764 46.3475 181.457 45.5416 180.844 44.9109C180.23 44.2803 179.444 43.9655 178.486 43.9655C177.541 43.9655 176.759 44.2779 176.138 44.9002C175.517 45.5237 175.207 46.3332 175.207 47.3275Z" fill="#231F20"/>
<path d="M193.501 49.7012L194.03 51.0245C193.114 51.8519 191.922 52.2644 190.457 52.2644C188.92 52.2644 187.686 51.8161 186.756 50.9196C185.825 50.0231 185.36 48.8261 185.36 47.3263C185.36 45.8969 185.797 44.7178 186.672 43.7855C187.546 42.8544 188.744 42.3883 190.267 42.3883C191.522 42.3883 192.572 42.7912 193.418 43.596C194.264 44.4019 194.688 45.4415 194.688 46.7159C194.688 47.1499 194.653 47.529 194.582 47.8509H187.265C187.336 48.7331 187.67 49.427 188.269 49.9313C188.868 50.4356 189.641 50.6883 190.585 50.6883C191.822 50.6895 192.796 50.3604 193.501 49.7012ZM190.181 43.9655C189.335 43.9655 188.644 44.2004 188.108 44.6689C187.572 45.1387 187.255 45.7443 187.157 46.4858H192.931C192.889 45.7014 192.624 45.085 192.138 44.6367C191.651 44.1897 190.998 43.9655 190.181 43.9655Z" fill="#231F20"/>
<path d="M127.852 78.6535V73.2421H129.553C130.022 72.6711 130.518 71.5027 131.04 69.7359C131.562 67.9703 131.884 65.7945 132.005 63.2087L132.164 60.0518H142.013V73.2409H144.169V78.6523H141.559V75.8351H130.462V78.6535H127.852ZM134.615 65.3963C134.479 67.2454 134.198 68.9061 133.775 70.3785C133.351 71.852 132.965 72.8058 132.618 73.2421H139.244V62.646H134.864L134.615 65.3963Z" fill="#231F20"/>
<path d="M153.812 72.9942L154.561 74.8206C153.563 75.6623 152.262 76.0831 150.657 76.0831C149.009 76.0831 147.68 75.5955 146.675 74.6179C145.668 73.6415 145.165 72.3563 145.165 70.7624C145.165 69.2447 145.656 67.9774 146.64 66.9629C147.623 65.9483 148.932 65.4416 150.566 65.4416C151.913 65.4416 153.055 65.8816 153.992 66.7602C154.931 67.64 155.4 68.7702 155.4 70.1532C155.4 70.7242 155.347 71.1904 155.24 71.5504H147.865C147.971 72.3015 148.304 72.8845 148.863 73.2982C149.423 73.7119 150.111 73.9181 150.929 73.9181C152.081 73.9181 153.041 73.6105 153.812 72.9942ZM150.455 67.6055C148.971 67.6055 148.08 68.3422 147.776 69.8146H152.791C152.805 69.1839 152.601 68.657 152.178 68.2361C151.755 67.8165 151.181 67.6055 150.455 67.6055Z" fill="#231F20"/>
<path d="M163.889 75.8351V68.2826H161.189L161.12 69.3651C160.954 71.1844 160.678 72.5817 160.292 73.5581C159.907 74.5357 159.422 75.1926 158.84 75.5311C158.258 75.8697 157.482 76.0378 156.515 76.0378L156.288 73.5128C156.62 73.5426 156.935 73.4496 157.23 73.2314C157.525 73.0132 157.808 72.5328 158.081 71.7889C158.353 71.0449 158.527 70.0638 158.603 68.8465L158.76 65.6896H166.499V75.8351H163.889Z" fill="#231F20"/>
<path d="M170.299 74.5833C169.278 73.5843 168.768 72.3098 168.768 70.7624C168.768 69.2149 169.278 67.9405 170.299 66.9414C171.32 65.9424 172.663 65.4416 174.328 65.4416C175.992 65.4416 177.335 65.9412 178.356 66.9414C179.377 67.9417 179.887 69.2149 179.887 70.7624C179.887 72.311 179.376 73.5843 178.356 74.5833C177.335 75.5836 175.992 76.0831 174.328 76.0831C172.663 76.0831 171.32 75.5836 170.299 74.5833ZM171.558 70.7624C171.558 71.6041 171.82 72.2991 172.34 72.8475C172.862 73.3959 173.524 73.6701 174.326 73.6701C175.144 73.6701 175.813 73.4031 176.335 72.8702C176.857 72.3373 177.118 71.6339 177.118 70.7624C177.118 69.9207 176.852 69.2292 176.323 68.688C175.794 68.1467 175.128 67.8761 174.326 67.8761C173.539 67.8761 172.882 68.1431 172.352 68.676C171.823 69.2101 171.558 69.9052 171.558 70.7624Z" fill="#231F20"/>
<path d="M113.262 24.5901H75.1753V62.429H113.262V24.5901Z" fill="#F3E700"/>
<path d="M83.4013 91.4087H45.3145V72.4326C45.3145 62.0153 53.8141 53.571 64.2997 53.571C74.8489 53.571 83.4013 62.0677 83.4013 72.5483V91.4087Z" fill="#00E1BB"/>
<path d="M94.2193 91.4087C83.7013 91.4087 75.1753 82.9382 75.1753 72.4887C75.1753 62.0391 83.7013 53.5686 94.2193 53.5686C104.737 53.5686 113.263 62.0391 113.263 72.4887C113.262 82.9382 104.736 91.4087 94.2193 91.4087Z" fill="#5267FF"/>
<path d="M64.4425 62.4302H45.3145V24.5901H64.2733C74.8369 24.5901 83.4013 33.0987 83.4013 43.5936C83.4013 53.9966 74.9137 62.4302 64.4425 62.4302Z" fill="#FF7E86"/>
<path d="M75.1763 72.4398C75.1763 78.8967 78.4331 84.5977 83.4035 88.0122V72.5471C83.4035 68.8275 82.3247 65.3582 80.4635 62.429H78.0635C76.2347 65.3332 75.1763 68.7631 75.1763 72.4398Z" fill="#3D73E0"/>
<path opacity="0.8" d="M78.6952 61.4848C78.639 61.5644 78.5828 61.6441 78.5278 61.725C78.5828 61.6441 78.6378 61.5644 78.6952 61.4848Z" fill="#CEA7E3"/>
<path opacity="0.8" d="M79.2552 60.7385C79.122 60.9066 78.9924 61.0782 78.8652 61.2511C78.9924 61.0794 79.1208 60.9078 79.2552 60.7385Z" fill="#CEA7E3"/>
<path opacity="0.8" d="M78.8634 61.2523C78.8072 61.3296 78.751 61.4069 78.6948 61.4842C78.751 61.4057 78.8072 61.3296 78.8634 61.2523Z" fill="#CEA7E3"/>
<path opacity="0.8" d="M78.5279 61.7256C78.3683 61.9557 78.2135 62.1905 78.0635 62.4278C78.2123 62.1905 78.3683 61.9569 78.5279 61.7256Z" fill="#CEA7E3"/>
<path opacity="0.8" d="M79.6147 61.2044C79.5922 61.1734 79.5696 61.1437 79.5459 61.1128C79.5696 61.1437 79.5922 61.1746 79.6147 61.2044Z" fill="#CEA7E3"/>
<path opacity="0.8" d="M79.8955 61.5883C79.8813 61.5681 79.8671 61.5491 79.854 61.5301C79.8671 61.5491 79.8813 61.5681 79.8955 61.5883Z" fill="#CEA7E3"/>
<path opacity="0.8" d="M80.4624 62.429C80.2812 62.144 80.0916 61.8627 79.896 61.5885C80.0916 61.8627 80.2812 62.1429 80.4624 62.429Z" fill="#CEA7E3"/>
<path opacity="0.8" d="M79.8531 61.528C79.7754 61.4198 79.6953 61.3116 79.6152 61.2046C79.6953 61.3116 79.7742 61.4198 79.8531 61.528Z" fill="#CEA7E3"/>
<path opacity="0.8" d="M79.5455 61.1118C79.4495 60.9858 79.3535 60.8621 79.2539 60.7385C79.3535 60.8621 79.4507 60.987 79.5455 61.1118Z" fill="#CEA7E3"/>
<path d="M79.6154 61.2046C79.6958 61.3119 79.775 61.4204 79.8542 61.5289C79.8686 61.5479 79.883 61.5682 79.8962 61.5873C80.0918 61.8627 80.2814 62.1428 80.4626 62.4278H110.381C107.016 57.0784 101.038 53.5186 94.2206 53.5186C88.1498 53.5186 82.7426 56.3417 79.2554 60.7373C79.3538 60.8601 79.451 60.9852 79.547 61.1116C79.5698 61.1438 79.5926 61.1748 79.6154 61.2046Z" fill="#4868EA"/>
<path d="M78.0625 62.4278C78.2125 62.1893 78.3673 61.9557 78.5269 61.7256C78.5821 61.6445 78.6385 61.5646 78.6949 61.4848C78.7513 61.4073 78.8065 61.3298 78.8641 61.2523C78.9913 61.0794 79.1209 60.9077 79.2541 60.7397C78.4645 59.7549 77.5789 58.85 76.6105 58.0394C76.1497 58.4232 75.6697 58.7869 75.1729 59.1254V62.4302L78.0625 62.4278C78.0625 62.429 78.0625 62.429 78.0625 62.4278Z" fill="#60CFAF"/>
<path d="M48.2041 62.429H64.4485C68.4301 62.429 72.1249 61.2082 75.1753 59.1242V56.9449C72.0889 54.8169 68.3425 53.5686 64.3021 53.5686C57.5149 53.5698 51.5605 57.1082 48.2041 62.429Z" fill="#DF74A8"/>
<path opacity="0.8" d="M75.9454 58.5675C75.9142 58.5913 75.883 58.6138 75.853 58.6364C75.883 58.6138 75.9142 58.5913 75.9454 58.5675Z" fill="#CEA7E3"/>
<path opacity="0.8" d="M75.8518 58.6378C75.6298 58.8047 75.4042 58.9681 75.1738 59.1254C75.4042 58.9681 75.6298 58.8047 75.8518 58.6378Z" fill="#CEA7E3"/>
<path d="M75.1738 27.9735V56.9449C75.6706 57.2871 76.1506 57.6519 76.6114 58.0381C76.393 58.2194 76.171 58.3958 75.9442 58.5675C80.479 55.1256 83.4058 49.7 83.4058 43.5936C83.4058 37.1212 80.149 31.4058 75.1738 27.9735Z" fill="#E77188"/>
<path d="M75.9457 58.5675C76.1713 58.3958 76.3945 58.2193 76.6129 58.0381C76.1521 57.6519 75.6721 57.287 75.1753 56.9449V59.1242C75.4057 58.9668 75.6301 58.8035 75.8533 58.6366C75.8833 58.614 75.9145 58.5913 75.9457 58.5675Z" fill="#DA80A6"/>
<path d="M79.2553 60.7385C78.8269 61.2785 78.4309 61.8436 78.0625 62.429H80.4625C80.0905 61.8436 79.6885 61.2785 79.2553 60.7385Z" fill="#3E77DB"/>
</svg>
