<svg id="epgu31vfzfp1" xmlns="http://www.w3.org/2000/svg" xmlns:xlink="http://www.w3.org/1999/xlink" viewBox="0 0 250 150" shape-rendering="geometricPrecision" text-rendering="geometricPrecision"><style><![CDATA[#epgu31vfzfp9_tr {animation: epgu31vfzfp9_tr__tr 1600ms linear infinite normal forwards}@keyframes epgu31vfzfp9_tr__tr { 0% {transform: translate(193.355255px,94.935013px) rotate(0deg)} 12.500000% {transform: translate(193.355255px,94.935013px) rotate(45deg)} 25% {transform: translate(193.355255px,94.935013px) rotate(90deg)} 37.500000% {transform: translate(193.355255px,94.935013px) rotate(135deg)} 50% {transform: translate(193.355255px,94.935013px) rotate(180deg)} 62.500000% {transform: translate(193.355255px,94.935013px) rotate(225deg)} 75% {transform: translate(193.355255px,94.935013px) rotate(270deg)} 87.500000% {transform: translate(193.355255px,94.935013px) rotate(315deg)} 100% {transform: translate(193.355255px,94.935013px) rotate(360deg)} }#epgu31vfzfp15_tr {animation: epgu31vfzfp15_tr__tr 1600ms linear infinite normal forwards}@keyframes epgu31vfzfp15_tr__tr { 0% {transform: translate(37.260000px,94.935013px) rotate(0deg)} 12.500000% {transform: translate(37.260000px,94.935013px) rotate(45deg)} 25% {transform: translate(37.260000px,94.935013px) rotate(90deg)} 37.500000% {transform: translate(37.260000px,94.935013px) rotate(135deg)} 50% {transform: translate(37.260000px,94.935013px) rotate(180deg)} 62.500000% {transform: translate(37.260000px,94.935013px) rotate(225deg)} 75% {transform: translate(37.260000px,94.935013px) rotate(270deg)} 87.500000% {transform: translate(37.260000px,94.935013px) rotate(315deg)} 100% {transform: translate(37.260000px,94.935013px) rotate(360deg)} }#epgu31vfzfp24_to {animation: epgu31vfzfp24_to__to 1600ms linear infinite normal forwards}@keyframes epgu31vfzfp24_to__to { 0% {transform: translate(96.412030px,43.511830px)} 31.250000% {transform: translate(114.264518px,39.899978px)} 68.750000% {transform: translate(126.689500px,41.226992px)} 100% {transform: translate(148.307495px,41.413491px)} }]]></style><path id="epgu31vfzfp2" d="M262.700000,380.600000L275.400000,380.600000L295.300000,352C297.800000,347,294.200000,341.200000,288.700000,341.200000L288.500000,341.200000C284.200000,341.200000,280.100000,339.400000,277.300000,336.200000C274,332.500000,269.500000,327.300000,265.700000,323C261.200000,317.900000,254.700000,314.900000,247.800000,314.900000L215.600000,314.900000C206.400000,314.900000,197.500000,318.200000,190.500000,324.300000L172,340.400000C168.800000,343.200000,164.700000,344.700000,160.400000,344.700000L141.900000,344.700000C131.700000,344.700000,123,352,121.200000,362L118.100000,379.100000L262.700000,380.600000Z" transform="matrix(1 0 0 1 -107.14500000000000 -288.36500000000001)" fill="rgb(140,174,220)" stroke="none" stroke-width="1"/><path id="epgu31vfzfp3" d="M258.300000,382.500000C258.300000,382.500000,258.300000,382.500000,258.300000,382.500000L118.100000,381C117.500000,381,117,380.700000,116.700000,380.300000C116.300000,379.900000,116.200000,379.300000,116.300000,378.800000L119.400000,361.700000C121.400000,350.800000,130.800000,342.900000,141.900000,342.900000L160.400000,342.900000C164.200000,342.900000,167.900000,341.500000,170.800000,339L189.400000,322.900000C196.700000,316.600000,206,313.100000,215.700000,313.100000L247.900000,313.100000C255.300000,313.100000,262.300000,316.300000,267.200000,321.800000L278.800000,335C281.300000,337.800000,284.800000,339.400000,288.600000,339.400000L288.800000,339.400000C292.100000,339.400000,295,341.100000,296.800000,343.900000C298.500000,346.700000,298.600000,350.100000,297.100000,353C296.600000,353.900000,295.500000,354.300000,294.600000,353.800000C293.700000,353.300000,293.300000,352.200000,293.800000,351.300000C294.700000,349.600000,294.600000,347.500000,293.600000,345.900000C292.600000,344.300000,290.800000,343.200000,288.800000,343.200000L288.600000,343.200000C283.800000,343.200000,279.200000,341.100000,276,337.600000L264.400000,324.400000C260.200000,319.700000,254.200000,317,247.900000,317L215.700000,317C206.900000,317,198.500000,320.200000,191.900000,325.900000L173.300000,342C169.700000,345.100000,165.200000,346.800000,160.500000,346.800000L142,346.800000C132.700000,346.800000,124.800000,353.400000,123.200000,362.500000L120.500000,377.500000L258.500000,379C259.500000,379,260.400000,379.900000,260.400000,380.900000C260.200000,381.700000,259.300000,382.500000,258.300000,382.500000Z" transform="matrix(1 0 0 1 -107.14500000000000 -288.36500000000001)" fill="rgb(0,0,0)" stroke="none" stroke-width="1"/><path id="epgu31vfzfp4" d="M249.500000,362L204.800000,362L189,362L136.600000,362C126.300000,362,118,370.300000,118,380.600000L118,382.700000L178.400000,382.700000C186,382.700000,192.100000,388.800000,192.100000,396.400000L192.100000,396.400000L242.400000,396.400000C251.100000,396.400000,258.100000,389.400000,258.100000,380.700000L258.100000,370.800000C258.300000,365.900000,254.400000,362,249.500000,362Z" transform="matrix(1 0 0 1 -107.14500000000000 -288.36500000000001)" fill="rgb(140,174,220)" stroke="none" stroke-width="1"/><path id="epgu31vfzfp5" d="M242.600000,390.700000L191,390.700000C191.800000,392.400000,192.200000,394.300000,192.200000,396.300000L192.200000,396.300000L242.500000,396.300000C251.200000,396.300000,258.200000,389.300000,258.200000,380.600000L258.200000,375C258.300000,383.700000,251.300000,390.700000,242.600000,390.700000Z" transform="matrix(1 0 0 1 -107.14500000000000 -288.36500000000001)" fill="rgb(91,140,193)" stroke="none" stroke-width="1"/><path id="epgu31vfzfp6" d="M236.600000,377C226.200000,381,215.400000,383.700000,204.300000,385.100000C210.700000,379,218.100000,373.800000,226.200000,370.200000C214.700000,370.800000,203.600000,373.400000,193.200000,378.200000C194,375.300000,195.700000,372.800000,198.200000,371.100000C190.200000,371,182.200000,373.300000,175.600000,377.700000L175.600000,382.600000L178.600000,382.600000C186.200000,382.600000,192.300000,388.700000,192.300000,396.300000L192.300000,396.300000L193.800000,396.300000C201.600000,392,210.100000,389,218.800000,387.300000C222.700000,386.600000,226.600000,386.100000,230.500000,385.100000C234.300000,384.100000,238.100000,382.600000,241.200000,380.100000C244.200000,377.600000,246.500000,373.900000,246.600000,369.900000C244.500000,373.600000,240.500000,375.500000,236.600000,377Z" transform="matrix(1 0 0 1 -107.14500000000000 -288.36500000000001)" fill="rgb(255,221,119)" stroke="none" stroke-width="1"/><path id="epgu31vfzfp7" d="M192.200000,398.200000C191.200000,398.200000,190.300000,397.400000,190.300000,396.300000C190.300000,389.800000,185,384.400000,178.400000,384.400000L175.400000,384.400000C174.400000,384.400000,173.500000,383.600000,173.500000,382.500000L173.500000,377.600000C173.500000,377,173.800000,376.400000,174.300000,376C181.200000,371.400000,189.600000,368.900000,198,369.100000C198.800000,369.100000,199.500000,369.700000,199.800000,370.400000C200,371.200000,199.700000,372,199.100000,372.500000C198.300000,373,197.600000,373.600000,197.100000,374.300000C206.300000,370.700000,216,368.700000,226,368.100000C226.900000,368.100000,227.700000,368.700000,227.900000,369.500000C228.100000,370.400000,227.700000,371.300000,226.800000,371.600000C220.900000,374.200000,215.300000,377.700000,210.100000,382C218.900000,380.500000,227.500000,378.100000,235.800000,374.900000C239.500000,373.500000,243.100000,371.700000,244.800000,368.700000C245.200000,367.900000,246.100000,367.600000,246.900000,367.800000C247.700000,368,248.300000,368.800000,248.300000,369.700000C248.200000,373.900000,246,378.100000,242.200000,381.300000C239.300000,383.700000,235.600000,385.500000,230.800000,386.700000C228.200000,387.300000,225.600000,387.800000,223.100000,388.200000C221.800000,388.400000,220.400000,388.700000,219,388.900000C215,389.700000,210.900000,390.800000,207,392.200000C206,392.500000,205,392,204.600000,391.100000C204.300000,390.100000,204.800000,389.100000,205.700000,388.700000C209.800000,387.300000,214,386.100000,218.200000,385.300000C219.600000,385,221,384.800000,222.400000,384.600000C224.900000,384.200000,227.400000,383.800000,229.800000,383.200000C234,382.100000,237.300000,380.600000,239.700000,378.600000C240.400000,378,241.100000,377.300000,241.700000,376.600000C240.200000,377.400000,238.700000,378.100000,237.100000,378.700000C226.700000,382.700000,215.600000,385.500000,204.300000,386.900000C203.500000,387,202.700000,386.600000,202.400000,385.800000C202.100000,385.100000,202.200000,384.200000,202.800000,383.600000C207.100000,379.500000,211.800000,375.900000,216.600000,372.900000C208.700000,374.100000,201,376.500000,193.700000,379.800000C193,380.100000,192.300000,380,191.700000,379.500000C191.100000,379,190.900000,378.300000,191.100000,377.600000C191.600000,375.900000,192.300000,374.400000,193.200000,373.100000C187.500000,373.700000,182,375.600000,177.200000,378.600000L177.200000,380.600000L178.300000,380.600000C186.900000,380.600000,193.900000,387.600000,193.900000,396.200000C194.100000,397.400000,193.300000,398.200000,192.200000,398.200000Z" transform="matrix(1 0 0 1 -107.14500000000000 -288.36500000000001)" fill="rgb(0,0,0)" stroke="none" stroke-width="1"/><path id="epgu31vfzfp8" d="M242.600000,398.200000L192.300000,398.200000C191.300000,398.200000,190.400000,397.400000,190.400000,396.300000C190.400000,389.800000,185.100000,384.400000,178.500000,384.400000L118.100000,384.400000C117.100000,384.400000,116.200000,383.600000,116.200000,382.500000L116.200000,380.400000C116.200000,369.100000,125.400000,359.900000,136.700000,359.900000L249.600000,359.900000C255.500000,359.900000,260.200000,364.700000,260.200000,370.500000L260.200000,380.400000C260.200000,390.300000,252.300000,398.200000,242.600000,398.200000ZM194,394.500000L242.600000,394.500000C250.200000,394.500000,256.400000,388.300000,256.400000,380.700000L256.400000,370.800000C256.400000,367,253.300000,363.900000,249.500000,363.900000L136.700000,363.900000C127.500000,363.900000,120,371.400000,120,380.600000L120,380.800000L178.500000,380.800000C186.500000,380.800000,193.100000,386.800000,194,394.500000Z" transform="matrix(1 0 0 1 -107.14500000000000 -288.36500000000001)" fill="rgb(0,0,0)" stroke="none" stroke-width="1"/><g id="epgu31vfzfp9_tr" transform="translate(193.355255,94.935013) rotate(0)"><g id="epgu31vfzfp9" transform="translate(-193.355255,-94.935013)"><path id="epgu31vfzfp10" d="M300.500000,407.900000C286.900000,407.900000,275.900000,396.900000,275.900000,383.300000C275.900000,369.700000,286.900000,358.700000,300.500000,358.700000C314.100000,358.700000,325.100000,369.700000,325.100000,383.300000C325.100000,396.800000,314.100000,407.900000,300.500000,407.900000ZM300.500000,362.400000C289,362.400000,279.600000,371.800000,279.600000,383.300000C279.600000,394.800000,289,404.200000,300.500000,404.200000C312,404.200000,321.400000,394.800000,321.400000,383.300000C321.400000,371.800000,312,362.400000,300.500000,362.400000Z" transform="matrix(1 0 0 1 -107.14500000000000 -288.36500000000001)" fill="rgb(0,0,0)" stroke="none" stroke-width="1"/><path id="epgu31vfzfp11" d="M300.500000,350.900000C282.600000,350.900000,268.200000,365.400000,268.200000,383.200000C268.200000,401,282.700000,415.500000,300.500000,415.500000C318.400000,415.500000,332.800000,401,332.800000,383.200000C332.800000,365.400000,318.400000,350.900000,300.500000,350.900000ZM300.500000,406C287.900000,406,277.800000,395.800000,277.800000,383.300000C277.800000,370.800000,288,360.600000,300.500000,360.600000C313.100000,360.600000,323.200000,370.800000,323.200000,383.300000C323.200000,395.800000,313.100000,406,300.500000,406Z" transform="matrix(1 0 0 1 -107.14500000000000 -288.36500000000001)" fill="rgb(116,115,110)" stroke="none" stroke-width="1"/><path id="epgu31vfzfp12" d="M300.500000,417.500000C281.600000,417.500000,266.300000,402.100000,266.300000,383.300000C266.300000,364.400000,281.700000,349.100000,300.500000,349.100000C319.300000,349.100000,334.700000,364.500000,334.700000,383.300000C334.800000,402.100000,319.400000,417.500000,300.500000,417.500000ZM300.500000,352.800000C283.700000,352.800000,270,366.500000,270,383.300000C270,400.100000,283.700000,413.800000,300.500000,413.800000C317.300000,413.800000,331,400.100000,331,383.300000C331,366.400000,317.300000,352.800000,300.500000,352.800000ZM300.500000,407.900000C286.900000,407.900000,275.900000,396.900000,275.900000,383.300000C275.900000,369.700000,286.900000,358.700000,300.500000,358.700000C314.100000,358.700000,325.100000,369.700000,325.100000,383.300000C325.100000,396.900000,314.100000,407.900000,300.500000,407.900000ZM300.500000,362.400000C289,362.400000,279.600000,371.800000,279.600000,383.300000C279.600000,394.800000,289,404.200000,300.500000,404.200000C312,404.200000,321.400000,394.800000,321.400000,383.300000C321.400000,371.800000,312,362.400000,300.500000,362.400000Z" transform="matrix(1 0 0 1 -107.14500000000000 -288.36500000000001)" fill="rgb(0,0,0)" stroke="none" stroke-width="1"/><path id="epgu31vfzfp13" d="M308,383.200000C308,379.300000,313.800000,376,321.700000,374.900000C319.400000,369,314.700000,364.300000,308.800000,362C307.700000,369.900000,304.400000,375.700000,300.500000,375.700000C296.600000,375.700000,293.300000,369.900000,292.200000,362C286.300000,364.300000,281.600000,369,279.300000,374.900000C287.200000,376,293,379.300000,293,383.200000C293,387.100000,287.200000,390.400000,279.300000,391.500000C281.600000,397.400000,286.300000,402.100000,292.200000,404.400000C293.300000,396.500000,296.600000,390.700000,300.500000,390.700000C304.400000,390.700000,307.700000,396.500000,308.800000,404.400000C314.700000,402.100000,319.400000,397.400000,321.700000,391.500000C313.800000,390.500000,308,387.200000,308,383.200000Z" transform="matrix(1 0 0 1 -107.14500000000000 -288.36500000000001)" fill="rgb(255,221,119)" stroke="none" stroke-width="1"/><path id="epgu31vfzfp14" d="M308.800000,406.300000C308.500000,406.300000,308.100000,406.200000,307.800000,406C307.300000,405.700000,307,405.200000,306.900000,404.600000C305.900000,396.800000,302.800000,392.500000,300.500000,392.500000C298.200000,392.500000,295.100000,396.700000,294.100000,404.600000C294,405.200000,293.700000,405.700000,293.200000,406C292.700000,406.300000,292.100000,406.300000,291.600000,406.100000C285.200000,403.600000,280.100000,398.500000,277.600000,392.100000C277.400000,391.600000,277.400000,391,277.700000,390.500000C278,390,278.500000,389.700000,279.100000,389.600000C286.900000,388.600000,291.200000,385.500000,291.200000,383.200000C291.200000,380.900000,287,377.800000,279.100000,376.800000C278.500000,376.700000,278,376.400000,277.700000,375.900000C277.400000,375.400000,277.400000,374.800000,277.600000,374.300000C280.100000,367.900000,285.200000,362.800000,291.600000,360.300000C292.100000,360.100000,292.700000,360.100000,293.200000,360.400000C293.700000,360.700000,294,361.200000,294.100000,361.800000C295.100000,369.600000,298.200000,373.900000,300.500000,373.900000C302.800000,373.900000,305.900000,369.700000,306.900000,361.800000C307,361.200000,307.300000,360.700000,307.800000,360.400000C308.300000,360.100000,308.900000,360.100000,309.400000,360.300000C315.800000,362.800000,320.900000,367.900000,323.400000,374.300000C323.600000,374.800000,323.600000,375.400000,323.300000,375.900000C323,376.400000,322.500000,376.700000,321.900000,376.800000C314.100000,377.800000,309.800000,380.900000,309.800000,383.200000C309.800000,385.500000,314,388.600000,321.900000,389.600000C322.500000,389.700000,323,390,323.300000,390.500000C323.600000,391,323.600000,391.600000,323.400000,392.100000C320.900000,398.500000,315.800000,403.600000,309.400000,406.100000C309.300000,406.300000,309,406.300000,308.800000,406.300000ZM282.100000,393C284.100000,396.700000,287.100000,399.800000,290.800000,401.700000C292.400000,393.800000,296.100000,388.800000,300.500000,388.800000C305,388.800000,308.700000,393.800000,310.200000,401.700000C313.900000,399.700000,317,396.700000,318.900000,393C311,391.400000,306,387.700000,306,383.300000C306,378.800000,311,375.100000,318.900000,373.600000C316.900000,369.900000,313.900000,366.800000,310.200000,364.900000C308.600000,372.800000,304.900000,377.800000,300.500000,377.800000C296,377.800000,292.300000,372.800000,290.800000,364.900000C287.100000,366.900000,284,369.900000,282.100000,373.600000C290,375.200000,295,378.900000,295,383.300000C294.900000,387.700000,290,391.400000,282.100000,393Z" transform="matrix(1 0 0 1 -107.14500000000000 -288.36500000000001)" fill="rgb(0,0,0)" stroke="none" stroke-width="1"/></g></g><g id="epgu31vfzfp15_tr" transform="translate(37.260000,94.935013) rotate(0)"><g id="epgu31vfzfp15" transform="translate(-37.255249,-94.935013)"><path id="epgu31vfzfp16" d="M144.400000,407.900000C130.800000,407.900000,119.800000,396.900000,119.800000,383.300000C119.800000,369.700000,130.800000,358.700000,144.400000,358.700000C158,358.700000,169,369.700000,169,383.300000C169.100000,396.800000,158,407.900000,144.400000,407.900000ZM144.400000,362.400000C132.900000,362.400000,123.500000,371.800000,123.500000,383.300000C123.500000,394.800000,132.900000,404.200000,144.400000,404.200000C155.900000,404.200000,165.300000,394.800000,165.300000,383.300000C165.300000,371.800000,156,362.400000,144.400000,362.400000Z" transform="matrix(1 0 0 1 -107.14500000000000 -288.36500000000001)" fill="rgb(0,0,0)" stroke="none" stroke-width="1"/><path id="epgu31vfzfp17" d="M144.400000,350.900000C126.500000,350.900000,112.100000,365.400000,112.100000,383.200000C112.100000,401,126.600000,415.500000,144.400000,415.500000C162.200000,415.500000,176.700000,401,176.700000,383.200000C176.700000,365.400000,162.300000,350.900000,144.400000,350.900000ZM144.400000,406C131.800000,406,121.700000,395.800000,121.700000,383.300000C121.700000,370.800000,131.900000,360.600000,144.400000,360.600000C157,360.600000,167.100000,370.800000,167.100000,383.300000C167.100000,395.800000,157,406,144.400000,406Z" transform="matrix(1 0 0 1 -107.14500000000000 -288.36500000000001)" fill="rgb(116,115,110)" stroke="none" stroke-width="1"/><path id="epgu31vfzfp18" d="M144.400000,417.500000C125.500000,417.500000,110.200000,402.100000,110.200000,383.300000C110.200000,364.400000,125.600000,349.100000,144.400000,349.100000C163.200000,349.100000,178.600000,364.500000,178.600000,383.300000C178.700000,402.100000,163.300000,417.500000,144.400000,417.500000ZM144.400000,352.800000C127.600000,352.800000,113.900000,366.500000,113.900000,383.300000C113.900000,400.100000,127.600000,413.800000,144.400000,413.800000C161.200000,413.800000,174.900000,400.100000,174.900000,383.300000C174.900000,366.400000,161.300000,352.800000,144.400000,352.800000ZM144.400000,407.900000C130.800000,407.900000,119.800000,396.900000,119.800000,383.300000C119.800000,369.700000,130.800000,358.700000,144.400000,358.700000C158,358.700000,169,369.700000,169,383.300000C169,396.900000,158,407.900000,144.400000,407.900000ZM144.400000,362.400000C132.900000,362.400000,123.500000,371.800000,123.500000,383.300000C123.500000,394.800000,132.900000,404.200000,144.400000,404.200000C155.900000,404.200000,165.300000,394.800000,165.300000,383.300000C165.300000,371.800000,156,362.400000,144.400000,362.400000Z" transform="matrix(1 0 0 1 -107.14500000000000 -288.36500000000001)" fill="rgb(0,0,0)" stroke="none" stroke-width="1"/><path id="epgu31vfzfp19" d="M151.900000,383.200000C151.900000,379.300000,157.700000,376,165.600000,374.900000C163.300000,369,158.600000,364.300000,152.700000,362C151.600000,369.900000,148.300000,375.700000,144.400000,375.700000C140.500000,375.700000,137.200000,369.900000,136.100000,362C130.200000,364.300000,125.500000,369,123.200000,374.900000C131.100000,376,136.900000,379.300000,136.900000,383.200000C136.900000,387.100000,131.100000,390.400000,123.200000,391.500000C125.500000,397.400000,130.200000,402.100000,136.100000,404.400000C137.200000,396.500000,140.500000,390.700000,144.400000,390.700000C148.300000,390.700000,151.600000,396.500000,152.700000,404.400000C158.600000,402.100000,163.300000,397.400000,165.600000,391.500000C157.700000,390.500000,151.900000,387.200000,151.900000,383.200000Z" transform="matrix(1 0 0 1 -107.14500000000000 -288.36500000000001)" fill="rgb(255,221,119)" stroke="none" stroke-width="1"/><path id="epgu31vfzfp20" d="M152.700000,406.300000C152.400000,406.300000,152,406.200000,151.700000,406C151.200000,405.700000,150.900000,405.200000,150.800000,404.600000C149.800000,396.800000,146.700000,392.500000,144.400000,392.500000C142.100000,392.500000,139,396.700000,138,404.600000C137.900000,405.200000,137.600000,405.700000,137.100000,406C136.600000,406.300000,136,406.300000,135.500000,406.100000C129.100000,403.600000,124,398.500000,121.500000,392.100000C121.300000,391.600000,121.300000,391,121.600000,390.500000C121.900000,390,122.400000,389.700000,123,389.600000C130.800000,388.600000,135.100000,385.500000,135.100000,383.200000C135.100000,380.900000,130.900000,377.800000,123,376.800000C122.400000,376.700000,121.900000,376.400000,121.600000,375.900000C121.300000,375.400000,121.300000,374.800000,121.500000,374.300000C124,367.900000,129.100000,362.800000,135.500000,360.300000C136,360.100000,136.600000,360.100000,137.100000,360.400000C137.600000,360.700000,137.900000,361.200000,138,361.800000C139,369.600000,142.100000,373.900000,144.400000,373.900000C146.700000,373.900000,149.800000,369.700000,150.800000,361.800000C150.900000,361.200000,151.200000,360.700000,151.700000,360.400000C152.200000,360.100000,152.800000,360.100000,153.300000,360.300000C159.700000,362.800000,164.800000,367.900000,167.300000,374.300000C167.500000,374.800000,167.500000,375.400000,167.200000,375.900000C166.900000,376.400000,166.400000,376.700000,165.800000,376.800000C158,377.800000,153.700000,380.900000,153.700000,383.200000C153.700000,385.500000,157.900000,388.600000,165.800000,389.600000C166.400000,389.700000,166.900000,390,167.200000,390.500000C167.500000,391,167.500000,391.600000,167.300000,392.100000C164.800000,398.500000,159.700000,403.600000,153.300000,406.100000C153.200000,406.300000,152.900000,406.300000,152.700000,406.300000ZM144.400000,388.800000C148.900000,388.800000,152.600000,393.800000,154.100000,401.700000C157.800000,399.700000,160.900000,396.700000,162.800000,393C154.900000,391.400000,149.900000,387.700000,149.900000,383.300000C149.900000,378.800000,154.900000,375.100000,162.800000,373.600000C160.800000,369.900000,157.800000,366.800000,154.100000,364.900000C152.500000,372.800000,148.800000,377.800000,144.400000,377.800000C140,377.800000,136.200000,372.800000,134.700000,364.900000C131,366.900000,127.900000,369.900000,126,373.600000C133.900000,375.200000,138.900000,378.900000,138.900000,383.300000C138.900000,387.800000,133.900000,391.500000,126,393C128,396.700000,131,399.800000,134.700000,401.700000C136.300000,393.800000,140,388.800000,144.400000,388.800000Z" transform="matrix(1 0 0 1 -107.14500000000000 -288.36500000000001)" fill="rgb(0,0,0)" stroke="none" stroke-width="1"/></g></g><path id="epgu31vfzfp21" d="M262.700000,382.500000L258.300000,382.500000C257.300000,382.500000,256.400000,381.700000,256.400000,380.600000C256.400000,379.500000,257.200000,378.700000,258.300000,378.700000L262.700000,378.700000C263.700000,378.700000,264.600000,379.500000,264.600000,380.600000C264.600000,381.700000,263.800000,382.500000,262.700000,382.500000Z" transform="matrix(1 0 0 1 -107.14500000000000 -288.36500000000001)" fill="rgb(0,0,0)" stroke="none" stroke-width="1"/><path id="epgu31vfzfp22" d="M271.500000,341.400000C271.500000,341.400000,271.500000,341.400000,271.500000,341.400000L259.800000,328.200000C256.800000,324.800000,252.400000,322.800000,247.800000,322.800000L243.200000,322.800000L250.700000,346.200000L269.400000,346.200000C271.900000,346.200000,273.100000,343.300000,271.500000,341.400000Z" transform="matrix(1 0 0 1 -107.14500000000000 -288.36500000000001)" fill="rgb(116,115,110)" stroke="none" stroke-width="1"/><path id="epgu31vfzfp23" d="M236.400000,322.800000L215.500000,322.800000C208.200000,322.800000,201.100000,325.400000,195.600000,330.200000L177.300000,346.100000L244,346.100000L236.400000,322.800000Z" transform="matrix(1 0 0 1 -107.14500000000000 -288.36500000000001)" fill="rgb(116,115,110)" stroke="none" stroke-width="1"/><g id="epgu31vfzfp24_to" transform="translate(96.412030,43.511830)"><g id="epgu31vfzfp24" transform="scale(0.820000,0.900000) translate(-117.760000,-40)"><path id="epgu31vfzfp25" d="M228.300003,322.799988L218.100006,346.200012L223,346.200012L233.199997,322.799988Z" transform="matrix(1 0 0 1 -108.34500458000009 -289.02861439999998)" fill="rgb(192,189,186)" stroke="none" stroke-width="1"/><path id="epgu31vfzfp26" d="M220.800003,322.799988L210.600006,346.200012L213,346.200012L223.199997,322.799988Z" transform="matrix(1 0 0 1 -107.14500000000000 -288.36500000000001)" fill="rgb(192,189,186)" stroke="none" stroke-width="1"/></g></g><path id="epgu31vfzfp27" d="M269.400000,348L250.700000,348C249.900000,348,249.200000,347.500000,248.900000,346.700000L241.400000,323.300000C241.200000,322.700000,241.300000,322.100000,241.700000,321.600000C242.100000,321.100000,242.600000,320.800000,243.200000,320.800000L247.800000,320.800000C252.900000,320.800000,257.800000,323,261.200000,326.800000L272.900000,340C274.200000,341.400000,274.500000,343.400000,273.700000,345.100000C272.900000,347,271.300000,348,269.400000,348ZM252.100000,344.300000L269.400000,344.300000C269.900000,344.300000,270.200000,344,270.300000,343.800000C270.400000,343.600000,270.500000,343.200000,270.100000,342.700000C270.100000,342.700000,270.100000,342.700000,270.100000,342.700000L258.400000,329.500000C255.700000,326.500000,251.900000,324.700000,247.800000,324.700000L245.700000,324.700000L252.100000,344.300000Z" transform="matrix(1 0 0 1 -107.14500000000000 -288.36500000000001)" fill="rgb(0,0,0)" stroke="none" stroke-width="1"/><path id="epgu31vfzfp28" d="M244,348L177.400000,348C176.600000,348,175.900000,347.500000,175.600000,346.800000C175.300000,346.100000,175.500000,345.200000,176.100000,344.700000L194.400000,328.800000C200.300000,323.700000,207.800000,320.900000,215.500000,320.900000L236.400000,320.900000C237.200000,320.900000,237.900000,321.400000,238.200000,322.200000L245.700000,345.600000C245.900000,346.200000,245.800000,346.800000,245.400000,347.300000C245.100000,347.700000,244.600000,348,244,348ZM182.400000,344.300000L241.400000,344.300000L235.100000,324.700000L215.600000,324.700000C208.700000,324.700000,202.100000,327.200000,196.900000,331.700000L182.400000,344.300000Z" transform="matrix(1 0 0 1 -107.14500000000000 -288.36500000000001)" fill="rgb(0,0,0)" stroke="none" stroke-width="1"/><path id="epgu31vfzfp29" d="M328.900000,308.700000L294.700000,318.900000L294.600000,326.500000C299.400000,326.500000,303.500000,329.300000,305.500000,333.400000L332.900000,333.400000L332.900000,320.400000L328.900000,308.700000Z" transform="matrix(1 0 0 1 -107.14500000000000 -288.36500000000001)" fill="rgb(140,174,220)" stroke="none" stroke-width="1"/><path id="epgu31vfzfp30" d="M332.900000,335.300000L305.500000,335.300000C304.800000,335.300000,304.100000,334.900000,303.800000,334.200000C302.100000,330.600000,298.600000,328.400000,294.600000,328.400000C294.100000,328.400000,293.600000,328.200000,293.300000,327.800000C293,327.400000,292.800000,327,292.800000,326.500000L292.900000,318.900000C292.900000,318.100000,293.400000,317.400000,294.200000,317.100000L328.400000,306.900000C329.400000,306.600000,330.400000,307.100000,330.700000,308.100000L334.700000,319.800000C334.800000,320,334.800000,320.200000,334.800000,320.400000L334.800000,333.400000C334.800000,334.500000,333.900000,335.300000,332.900000,335.300000ZM306.600000,331.500000L331,331.500000L331,320.700000L327.700000,311L296.500000,320.300000L296.500000,324.800000C300.700000,325.400000,304.400000,327.800000,306.600000,331.500000Z" transform="matrix(1 0 0 1 -107.14500000000000 -288.36500000000001)" fill="rgb(0,0,0)" stroke="none" stroke-width="1"/><path id="epgu31vfzfp31" d="M305.400000,348C305.100000,348,304.900000,347.900000,304.600000,347.800000C303.700000,347.400000,303.300000,346.200000,303.700000,345.300000L309.700000,332.600000C310.100000,331.700000,311.300000,331.300000,312.200000,331.700000C313.100000,332.100000,313.500000,333.300000,313.100000,334.200000L307.100000,346.900000C306.800000,347.600000,306.100000,348,305.400000,348Z" transform="matrix(1 0 0 1 -107.14500000000000 -288.36500000000001)" fill="rgb(0,0,0)" stroke="none" stroke-width="1"/><g id="epgu31vfzfp32"><path id="epgu31vfzfp33" d="M283.200000,342.100000C282.200000,342.100000,281.300000,341.300000,281.300000,340.200000L281.300000,293.500000C281.300000,292.500000,282.100000,291.600000,283.200000,291.600000C284.300000,291.600000,285.100000,292.400000,285.100000,293.500000L285.100000,340.200000C285.100000,341.200000,284.200000,342.100000,283.200000,342.100000Z" transform="matrix(1 0 0 1 -107.14500000000000 -288.36500000000001)" fill="rgb(0,0,0)" stroke="none" stroke-width="1"/></g></svg>